  <svg xmlns="http://www.w3.org/2000/svg" style="display: none;">
    <symbol viewBox="-50 -67.706 100 84.539" id="logo">
    <!-- <g>
      <path d="M-32.69-15.926v-4.846l-4-4.232h-8.925l-4 4.232v6l3.923 4.117h8.002l1.846 1.884v3.424l-1.962 2.039h-6.655l-2.346-2.385v-3.385H-50v4.847L-46 0h9.694l4.001-4.231v-5.655l-3.885-4.078h-8.001l-1.885-1.923v-3.77l2-2.039h5.886l2.308 2.385v3.385zM-23.865 0h10.848l4-4.231v-16.541l-4-4.232h-10.848l-4 4.232v16.54zm1.5-3.308l-1.962-2.039v-14.31l2-2.039h7.81l1.961 2.04v14.309l-2 2.039zM-4.193-25.004v3.078H-1.5v18.849h-2.693V0h17.541v-7.54h-2.923v4.463H2.039v-18.85h3.077v-3.077zM15.48-3.077V0h9.693v-3.077h-3.078v-18.85h3.078v-3.077h-9.694v3.078h3.077v18.849zM29.612-25.004v3.078h2.693v18.849h-2.693V0H46l4-4.231v-16.541l-4-4.232zm6.232 21.696v-18.388h8.655l1.962 2.04v14.309l-2 2.039z"/>
    </g>
    <g>
      <path d="M-50 15.376v1.457h4.587v-1.457h-1.456v-8.92h1.456V5H-50v1.456h1.456v8.92zM-40.363 15.376V6.802l5.316 10.03h2.512V6.457h1.275V5h-4.224v1.456h1.274v8.593L-39.525 5h-3.787v1.456h1.275v8.92h-1.275v1.457h4.224v-1.457zM-22.679 16.833v-1.457h-1.82v-8.92h2.512v2.112h1.383V5h-9.466v3.568h1.384V6.456h2.512v8.92h-1.82v1.457zM-19.231 5v1.456h1.274v8.92h-1.274v1.457h8.665v-3.568h-1.456v2.111h-4.26v-3.731h4.26v-1.457h-4.26V6.456h4.26v2.112h1.456V5zM-8.283 5v1.456h1.274v8.92h-1.274v1.457h4.041v-1.457h-1.092v-2.73h2.676l1.639 2.73h-.51v1.457h3.24v-1.457H.746l-1.693-2.803 1.839-1.93v-3.64L-1.001 5zm2.95 1.566h3.622L-.674 7.64v2.366l-1.055 1.074h-3.605zM2.72 6.456H3.72l3.732 10.377h2.312l3.732-10.377h1V5H10.64v1.456h1.183L8.6 15.395 5.396 6.456h1.183V5h-3.86zM15.506 15.376v1.457h4.588v-1.457h-1.456v-8.92h1.456V5h-4.588v1.456h1.457v8.92zM22.195 5v1.456h1.274v8.92h-1.274v1.457h8.665v-3.568h-1.456v2.111h-4.26v-3.731h4.26v-1.457h-4.26V6.456h4.26v2.112h1.456V5zM32.05 6.456h.91l3.095 10.377h2.24l2.73-9.157 2.73 9.157h2.24L49.09 6.456H50V5h-3.86v1.456h1.275l-2.585 8.647-2.567-8.647h.728V5H39.06v1.456h.728l-2.585 8.647-2.567-8.647h1.275V5h-3.86z"/>
    </g> -->
    <path d="M17.185-67.703v1.927c.67 0 1.638 0 2.325.169a1.717 1.717 0 01.71.327c.115.11.165.17.165.438v9.62c0 .663.292 1.11.592 1.54.3.43.661.833 1.008 1.21.346.377.677.725.896.984l.038.048c-.22.225-.565.539-.927.898-.729.722-1.65 1.645-1.65 3.004v9.677c0 .27-.048.32-.202.446-.153.127-.465.266-.85.35-.769.168-1.657.123-2.105.123v1.923c.217 0 1.384.077 2.511-.169.564-.12 1.154-.319 1.667-.744a2.543 2.543 0 00.904-1.929v-9.677c0-.315.44-1.006 1.081-1.64.32-.317.658-.617.95-.917.146-.15.28-.297.41-.481.127-.183.292-.406.292-.83 0-.418-.142-.62-.26-.807a4.27 4.27 0 00-.39-.519c-.285-.337-.623-.688-.95-1.044a10.688 10.688 0 01-.846-1.01c-.204-.294-.246-.53-.246-.44v-9.62c0-.73-.314-1.405-.775-1.84-.462-.433-1.01-.652-1.546-.788-1.075-.273-2.185-.23-2.802-.23zm-34.37.004c-.617 0-1.728-.045-2.802.23-.536.135-1.088.354-1.55.789-.461.433-.769 1.108-.769 1.838v9.62c0-.09-.044.146-.25.44-.204.292-.517.654-.844 1.01-.327.355-.67.707-.954 1.044-.142.17-.27.33-.386.52-.116.188-.26.388-.26.807 0 .423.162.646.288.829.13.182.27.332.414.48.292.3.627.6.946.918.64.634 1.087 1.325 1.087 1.64v9.677c0 .79.384 1.506.898 1.929.513.425 1.107.623 1.67.744 1.126.244 2.295.17 2.512.17v-1.924c-.448 0-1.338.043-2.105-.123-.385-.083-.698-.223-.854-.35-.154-.127-.198-.177-.198-.446v-9.677c0-1.361-.925-2.283-1.654-3.004-.364-.361-.706-.677-.927-.902l.038-.048c.22-.26.554-.607.9-.984a11.808 11.808 0 001.008-1.21c.3-.43.592-.877.592-1.538v-9.624c0-.269.048-.326.166-.438a1.715 1.715 0 01.707-.327c.685-.175 1.656-.17 2.327-.17zm24.043 1.923a.613.613 0 01.46.115l3.81 2.742a.59.59 0 01.14.854l-2.295 3.189-4.83-3.423 2.32-3.221a.606.606 0 01.395-.256zM3.054-60.71l4.792 3.394-12.184 16.93-4.812-3.462zm-13.162 18.542l4.473 3.22-5.453 2.861z" overflow="visible"/>
    </symbol>
  </svg>
