  <svg xmlns="http://www.w3.org/2000/svg" style="display: none;">
    <symbol viewBox="-50 -143.61 100 160.443" id="logo">
        <g>
        <path d="M-32.69-15.926v-4.846l-4-4.232h-8.925l-4 4.232v6l3.923 4.117h8.002l1.846 1.884v3.424l-1.962 2.039h-6.655l-2.346-2.385v-3.385H-50v4.847L-46 0h9.694l4.001-4.231v-5.655l-3.885-4.078h-8.001l-1.885-1.923v-3.77l2-2.039h5.886l2.308 2.385v3.385zM-23.865 0h10.848l4-4.231v-16.541l-4-4.232h-10.848l-4 4.232v16.54zm1.5-3.308l-1.962-2.039v-14.31l2-2.039h7.81l1.961 2.04v14.309l-2 2.039zM-4.193-25.004v3.078H-1.5v18.849h-2.693V0h17.541v-7.54h-2.923v4.463H2.039v-18.85h3.077v-3.077zM15.48-3.077V0h9.693v-3.077h-3.078v-18.85h3.078v-3.077h-9.694v3.078h3.077v18.849zM29.612-25.004v3.078h2.693v18.849h-2.693V0H46l4-4.231v-16.541l-4-4.232zm6.232 21.696v-18.388h8.655l1.962 2.04v14.309l-2 2.039z"/>
        </g>
        <g>
        <path d="M-50 15.376v1.457h4.587v-1.457h-1.456v-8.92h1.456V5H-50v1.456h1.456v8.92zM-40.363 15.376V6.802l5.316 10.03h2.512V6.457h1.275V5h-4.224v1.456h1.274v8.593L-39.525 5h-3.787v1.456h1.275v8.92h-1.275v1.457h4.224v-1.457zM-22.679 16.833v-1.457h-1.82v-8.92h2.512v2.112h1.383V5h-9.466v3.568h1.384V6.456h2.512v8.92h-1.82v1.457zM-19.231 5v1.456h1.274v8.92h-1.274v1.457h8.665v-3.568h-1.456v2.111h-4.26v-3.731h4.26v-1.457h-4.26V6.456h4.26v2.112h1.456V5zM-8.283 5v1.456h1.274v8.92h-1.274v1.457h4.041v-1.457h-1.092v-2.73h2.676l1.639 2.73h-.51v1.457h3.24v-1.457H.746l-1.693-2.803 1.839-1.93v-3.64L-1.001 5zm2.95 1.566h3.622L-.674 7.64v2.366l-1.055 1.074h-3.605zM2.72 6.456H3.72l3.732 10.377h2.312l3.732-10.377h1V5H10.64v1.456h1.183L8.6 15.395 5.396 6.456h1.183V5h-3.86zM15.506 15.376v1.457h4.588v-1.457h-1.456v-8.92h1.456V5h-4.588v1.456h1.457v8.92zM22.195 5v1.456h1.274v8.92h-1.274v1.457h8.665v-3.568h-1.456v2.111h-4.26v-3.731h4.26v-1.457h-4.26V6.456h4.26v2.112h1.456V5zM32.05 6.456h.91l3.095 10.377h2.24l2.73-9.157 2.73 9.157h2.24L49.09 6.456H50V5h-3.86v1.456h1.275l-2.585 8.647-2.567-8.647h.728V5H39.06v1.456h.728l-2.585 8.647-2.567-8.647h1.275V5h-3.86z"/>
        </g>
        <g>
        <path d="M-24.044-143.61v2.185l47.131 27.186v75.82L25-37.326v-78.006z"/>
        <path d="M-25-56.179l36.749 21.175.546-.273 7.924-3.962.273-.136v-73.498L-25-139.239v83.06zm37.295 17.896l-.137-5.327 5.055 3.005-4.918 2.322zm-35.382-97.677l41.666 24.044v69.808l-8.606-4.918.273 9.017-33.333-19.263v-78.688z"/>
        <path d="M-17.896-95.25L-7.24-82.818v-1.776l-9.017-10.383h9.017v-1.775l-10.656.136zm12.022 14.345l1.639.956 6.284-15.437-1.503-.957zm19.945 2.732L3.551-90.605v1.913l9.017 10.246v.136H3.552v1.776l10.519-.137z"/>
        </g>
    </symbol>
  </svg>
