
  <svg xmlns="http://www.w3.org/2000/svg" style="display: none;">
    <symbol viewBox="-52.386 -82.086 104.771 182.086" id="logo">
    <g>
      <path d="M14.614 31.857V19.286C14.614 8.714 5.9 0-4.67 0H-33.1c-10.571 0-19.286 8.714-19.286 19.286v18.143c0 9 6.286 16.857 15.143 18.857l25.714 5.857c1.858.286 3 1.857 3 3.714v9.572c0 2-1.714 3.714-3.857 3.714h-13c-2.143 0-3.857-1.714-3.857-3.714v-7.286h-23.143v12.571C-52.386 91.286-43.67 100-33.1 100h28.429c10.571 0 19.285-8.714 19.285-19.286V62.571c0-9-6.285-16.857-15.143-18.857l-25.714-5.857c-1.714-.286-3-1.857-3-3.714V24.57c0-2 1.714-3.714 3.857-3.714h13c2.143 0 3.857 1.714 3.857 3.714v7.286zM52.386 0H24.1l5.286 10.429V100h23z"/>
    </g>
    <g>
      <path d="M-25.92-54.21l10.533 6.019c.136.136.273.136.547.136.41 0 .684-.136.957-.547.274-.547.137-1.094-.41-1.367l-9.028-5.198 9.028-5.198c.547-.273.684-.957.41-1.367-.273-.547-.957-.684-1.368-.41l-10.668 6.154-.137.137-.137.137v.82c0 .41.137.548.274.684zm51.84-.957V-55.577l-.137-.137-.137-.137-10.532-6.018c-.547-.274-1.094-.137-1.368.41-.273.547-.137 1.094.41 1.368l9.028 5.198-9.028 5.197c-.547.274-.683.958-.41 1.368.137.273.547.547.958.547.136 0 .41 0 .547-.137l10.532-6.018.41-.41v-.274c-.274-.41-.274-.41-.274-.547zm-6.703-26.672c-.41-.41-1.094-.273-1.368.137l-37.75 50.06c-.274.411-.274 1.095.137 1.368.136.137.41.274.684.274s.683-.137.82-.41l37.75-50.06c.274-.411.274-.958-.273-1.369z"/>
    </g>
    </symbol>
  </svg>
