  <svg xmlns="http://www.w3.org/2000/svg" style="display: none;">
    <symbol viewBox="0 -189.583 534.234 190.349" id="logo">
        <path d="M205.723-132.11l22.155-22.11-12.151-12.15-34.26 34.26 24.667 24.667 12.06-12.196zM328.1-156.778l-12.06 12.151 12.472 12.517-22.064 22.155 12.06 12.105 34.26-34.26zM209.686-86.802l102.781-102.781 12.113 12.113L221.799-74.69z"/>
    <g>
      <path d="M33.702-26.809v-13.02h-8.425L23.668-36c-1.991-2.68-5.285-4.596-10.34-4.596C4.596-40.596.383-34.39.383-29.03c0 10.647 8.808 12.332 15.396 13.634 3.983.766 7.2 1.456 7.2 3.907 0 2.068-1.915 3.063-5.592 3.063-3.676 0-6.28-1.378-6.28-4.595H0V0h8.426l1.608-3.753C12.255-.766 15.932.766 20.757.766c7.277 0 13.328-4.52 13.328-11.643 0-10.263-8.119-12.102-14.63-13.404-4.366-.842-7.966-1.455-7.966-4.06 0-1.914 1.532-3.063 5.209-3.063 3.676 0 5.898 1.378 5.898 4.595zM73.877-24.74c0-10.494-6.894-15.856-17.388-15.856-10.57 0-17.463 5.362-17.463 15.856v9.65C39.026-4.595 45.919.767 56.413.767c10.57 0 17.464-5.362 17.464-15.855zM62.77-14.323c0 3.753-2.45 5.514-6.357 5.514-3.753 0-6.281-1.761-6.281-5.514v-11.183c0-3.754 2.528-5.515 6.357-5.515 3.83 0 6.281 1.761 6.281 5.515zM96.434-56.68H79.2v9.574h6.128v37.532H79.2V0h23.362v-9.574h-6.128zM112.098-45.574h11.106v-11.107h-11.106zm11.106 5.744H105.97v9.575h6.128v20.68h-6.128V0h23.362v-9.574h-6.128zM133.123-15.09c0 10.494 5.515 15.856 14.094 15.856 4.52 0 8.272-1.532 10.723-4.52L159.55 0h14.553v-9.574h-6.128v-47.107H150.74v9.575h6.128v9.957c-2.451-2.298-5.745-3.447-9.728-3.447-8.502 0-14.017 5.362-14.017 15.856zm11.107-10.416c0-3.754 2.45-5.515 6.28-5.515s6.358 1.761 6.358 5.515v11.183c0 3.753-2.528 5.514-6.28 5.514-3.907 0-6.358-1.761-6.358-5.514z"/>
    </g>
    <g>
      <path d="M188.251-47.336h3.294v-7.353h-3.294zm3.294 8.655h-11.183v2.91h7.89v32.86h-7.89V0h19.072v-2.91h-7.89zM241.753 0h11.183v-2.91h-7.813v-23.056c0-9.268-5.438-13.48-14.706-13.48-5.898 0-10.57 2.067-13.174 5.974l-.383-5.209h-10.57v2.91h7.889v32.86h-7.89V0h19.073v-2.91h-7.813v-22.673c0-7.2 5.132-10.953 12.408-10.953 7.277 0 11.796 3.14 11.796 10.417zM266.991-35.77h13.098v-2.91h-13.098v-15.09l-3.37.996v14.093h-8.425v2.91h8.425v21.448c0 10.953 1.762 16.927 16.468 14.323v-2.834c-11.336 1.838-13.098-1.532-13.098-10.8zM312.91-11.643c-.153 5.745-4.442 9.498-11.872 9.498-7.966 0-12.332-4.212-12.332-11.106v-5.285h27.575v-6.817c0-9.268-6.204-14.094-15.472-14.094-9.345 0-15.473 4.826-15.473 14.094v11.872c0 9.115 5.898 14.247 15.702 14.247 9.345 0 15.013-4.749 15.243-12.409zm-24.204-13.94c0-7.2 4.75-10.953 12.103-10.953 7.276 0 12.102 3.753 12.102 10.953v4.136h-24.205zM324.209-35.77h7.889v32.86h-7.89V0h19.073v-2.91h-7.813v-22.673c0-7.583 6.74-12.179 16.009-10.187v-3.064c-6.358-1.532-12.945.46-16.239 5.898l-.46-5.745h-10.57zM378.706 0l15.396-35.77h6.358v-2.91h-17.311v2.91h7.583L376.715-3.064 362.698-35.77h7.506v-2.91H352.74v2.91h6.358L374.494 0zM412.753-47.336h3.294v-7.353h-3.294zm3.294 8.655h-11.183v2.91h7.89v32.86h-7.89V0h19.072v-2.91h-7.89zM459.055-11.643c-.153 5.745-4.442 9.498-11.872 9.498-7.966 0-12.332-4.212-12.332-11.106v-5.285h27.575v-6.817c0-9.268-6.205-14.094-15.473-14.094-9.344 0-15.472 4.826-15.472 14.094v11.872c0 9.115 5.898 14.247 15.702 14.247 9.345 0 15.013-4.749 15.243-12.409zm-24.204-13.94c0-7.2 4.749-10.953 12.102-10.953 7.277 0 12.102 3.753 12.102 10.953v4.136h-24.204zM488.583 0l11.49-33.549L511.637 0h3.83l12.562-35.77h6.204v-2.91H517v2.91h7.813L513.63-3.83l-11.796-34.85h-3.217L486.821-3.83l-11.336-31.94h7.89v-2.91h-17.388v2.91h6.128L484.753 0z"/>
    </g>
    </symbol>


    <symbol viewBox="0 0 50 50" id="logo-short">
      <path d="M188.251-47.336h3.294v-7.353h-3.294zm3.294 8.655h-11.183v2.91h7.89v32.86h-7.89V0h19.072v-2.91h-7.89zM241.753 0h11.183v-2.91h-7.813v-23.056c0-9.268-5.438-13.48-14.706-13.48-5.898 0-10.57 2.067-13.174 5.974l-.383-5.209h-10.57v2.91h7.889v32.86h-7.89V0h19.073v-2.91h-7.813v-22.673c0-7.2 5.132-10.953 12.408-10.953 7.277 0 11.796 3.14 11.796 10.417zM266.991-35.77h13.098v-2.91h-13.098v-15.09l-3.37.996v14.093h-8.425v2.91h8.425v21.448c0 10.953 1.762 16.927 16.468 14.323v-2.834c-11.336 1.838-13.098-1.532-13.098-10.8zM312.91-11.643c-.153 5.745-4.442 9.498-11.872 9.498-7.966 0-12.332-4.212-12.332-11.106v-5.285h27.575v-6.817c0-9.268-6.204-14.094-15.472-14.094-9.345 0-15.473 4.826-15.473 14.094v11.872c0 9.115 5.898 14.247 15.702 14.247 9.345 0 15.013-4.749 15.243-12.409zm-24.204-13.94c0-7.2 4.75-10.953 12.103-10.953 7.276 0 12.102 3.753 12.102 10.953v4.136h-24.205zM324.209-35.77h7.889v32.86h-7.89V0h19.073v-2.91h-7.813v-22.673c0-7.583 6.74-12.179 16.009-10.187v-3.064c-6.358-1.532-12.945.46-16.239 5.898l-.46-5.745h-10.57zM378.706 0l15.396-35.77h6.358v-2.91h-17.311v2.91h7.583L376.715-3.064 362.698-35.77h7.506v-2.91H352.74v2.91h6.358L374.494 0zM412.753-47.336h3.294v-7.353h-3.294zm3.294 8.655h-11.183v2.91h7.89v32.86h-7.89V0h19.072v-2.91h-7.89zM459.055-11.643c-.153 5.745-4.442 9.498-11.872 9.498-7.966 0-12.332-4.212-12.332-11.106v-5.285h27.575v-6.817c0-9.268-6.205-14.094-15.473-14.094-9.344 0-15.472 4.826-15.472 14.094v11.872c0 9.115 5.898 14.247 15.702 14.247 9.345 0 15.013-4.749 15.243-12.409zm-24.204-13.94c0-7.2 4.749-10.953 12.102-10.953 7.277 0 12.102 3.753 12.102 10.953v4.136h-24.204zM488.583 0l11.49-33.549L511.637 0h3.83l12.562-35.77h6.204v-2.91H517v2.91h7.813L513.63-3.83l-11.796-34.85h-3.217L486.821-3.83l-11.336-31.94h7.89v-2.91h-17.388v2.91h6.128L484.753 0z"/>
    </symbol>
  </svg>
