<svg xmlns="http://www.w3.org/2000/svg">
    <symbol viewBox="-50 -93.622 100 117.919" id="logo">
    <g>
      <path d="M-50-18.506c0 1.061.203 2.06.608 2.995a7.825 7.825 0 001.654 2.45 7.857 7.857 0 002.44 1.654c.93.405 1.925.607 2.986.607h5.132a2.539 2.539 0 012.36 1.556c.13.31.196.644.196 1.002a2.543 2.543 0 01-.742 1.814 2.526 2.526 0 01-1.814.742h-11.39v5.132h11.39c1.06 0 2.059-.203 2.994-.608a7.828 7.828 0 002.45-1.654 7.728 7.728 0 001.645-2.44c.4-.93.599-1.926.599-2.986 0-1.061-.2-2.06-.6-2.995a7.698 7.698 0 00-1.644-2.45 7.71 7.71 0 00-2.45-1.645 7.547 7.547 0 00-2.994-.599h-5.132a2.542 2.542 0 01-1.815-.742 2.509 2.509 0 01-.545-.822 2.606 2.606 0 01-.196-1.01 2.543 2.543 0 01.741-1.815 2.547 2.547 0 011.815-.742h11.765v-5.132h-11.765c-1.06 0-2.056.203-2.986.608a7.857 7.857 0 00-2.44 1.654 7.857 7.857 0 00-1.654 2.44A7.389 7.389 0 00-50-18.505zM-1.86-13.267c0-1.216-.157-2.39-.473-3.522a13.322 13.322 0 00-1.332-3.165 13.248 13.248 0 00-2.074-2.682 13.218 13.218 0 00-2.682-2.074 13.313 13.313 0 00-3.165-1.332 13.047 13.047 0 00-3.522-.474c-1.216 0-2.387.159-3.514.474-1.126.316-2.18.76-3.164 1.332a13.107 13.107 0 00-2.69 2.074c-.812.811-1.506 1.705-2.084 2.682a13.099 13.099 0 00-1.815 6.687c0 1.216.158 2.387.474 3.514a13.298 13.298 0 003.424 5.855 13.295 13.295 0 005.855 3.424c1.127.316 2.298.474 3.514.474 1.216 0 2.39-.158 3.522-.474a13.09 13.09 0 003.165-1.341A13.463 13.463 0 00-5.74-3.898c.81-.81 1.502-1.707 2.074-2.69a13.528 13.528 0 001.332-3.165c.316-1.127.474-2.298.474-3.514zm-5.095 0c0 1.12-.214 2.172-.644 3.156a8.398 8.398 0 01-1.743 2.584 8.152 8.152 0 01-2.592 1.752 7.928 7.928 0 01-3.174.644 7.908 7.908 0 01-3.183-.644 8.287 8.287 0 01-2.592-1.752 8.325 8.325 0 01-1.752-2.584 7.802 7.802 0 01-.644-3.156c0-1.12.214-2.178.644-3.173a8.163 8.163 0 011.752-2.593 8.376 8.376 0 012.592-1.743 7.916 7.916 0 013.183-.644c1.12 0 2.178.215 3.174.644.995.429 1.859 1.01 2.592 1.743A8.233 8.233 0 01-7.6-16.44c.43.995.644 2.053.644 3.173zM18.604-.554v-5.132H5.784v-20.508H.652v25.64zM25.55-.554v-25.64h-5.132v25.64zM50-13.374a12.62 12.62 0 00-1.752-6.463 13.21 13.21 0 00-2.003-2.593 12.718 12.718 0 00-2.592-2.012 12.84 12.84 0 00-3.067-1.296 12.643 12.643 0 00-3.406-.456h-7.724v25.64h7.724c1.18 0 2.316-.152 3.406-.456a12.84 12.84 0 003.067-1.296c.953-.56 1.817-1.231 2.592-2.012a13.226 13.226 0 002.003-2.592A12.626 12.626 0 0050-13.374zm-5.131 0c0 1.06-.2 2.06-.6 2.995a7.704 7.704 0 01-1.644 2.45 7.7 7.7 0 01-2.45 1.644c-.936.4-1.934.6-2.995.6h-2.557v-15.377h2.557c1.061 0 2.06.202 2.995.608a7.828 7.828 0 012.45 1.654 7.728 7.728 0 011.645 2.44c.399.93.599 1.925.599 2.986z"/>
    </g>
    <g>
      <path d="M-45.472 7.245a2.232 2.232 0 00-.666-1.585 2.346 2.346 0 00-.722-.48 2.195 2.195 0 00-.882-.18 2.272 2.272 0 00-1.598.66A2.276 2.276 0 00-50 7.245c0 .313.06.605.179.876.12.272.28.509.481.71.202.202.44.362.716.481.275.12.57.18.882.18.312 0 .606-.06.882-.18s.516-.28.722-.48c.205-.202.368-.439.487-.71.12-.272.18-.564.18-.877zm-.58 16.805V10.836h-3.393V24.05zM-40.703 24.05V16.5c0-.346.065-.673.197-.982a2.521 2.521 0 011.357-1.35 2.548 2.548 0 011-.198c.345 0 .67.066.975.197a2.555 2.555 0 011.344 1.351c.132.309.198.636.198.981v7.551h3.368V16.5c0-.815-.154-1.582-.463-2.302a6.011 6.011 0 00-1.264-1.888 5.91 5.91 0 00-1.876-1.27 5.704 5.704 0 00-2.282-.463 5.904 5.904 0 00-3.997 1.542l-1.111-1.283h-.815V24.05zM-24.004 24.05h2.554v-3.356h-2.554a2.48 2.48 0 01-.999-.204 2.536 2.536 0 01-1.555-2.35v-3.924h5.108v-3.355h-5.108V5.58h-3.356v5.28h-1.64v3.356h1.64v3.924c0 .814.154 1.58.463 2.295a5.984 5.984 0 003.152 3.153c.716.308 1.48.462 2.295.462zM-14.892 20.818l6.317-7.613a6.815 6.815 0 00-2.412-2.11 6.793 6.793 0 00-1.5-.567 6.638 6.638 0 00-1.615-.198c-.93 0-1.804.169-2.622.506a6.555 6.555 0 00-2.147 1.419 6.59 6.59 0 00-1.45 2.209c-.354.863-.53 1.817-.53 2.862 0 1.02.176 1.955.53 2.807a6.775 6.775 0 001.45 2.202 6.674 6.674 0 004.769 1.962 6.77 6.77 0 001.61-.191A6.598 6.598 0 00-11 23.545a6.827 6.827 0 001.32-.901 6.636 6.636 0 001.08-1.197l-2.468-2.48a3.24 3.24 0 01-1.228 1.425 3.326 3.326 0 01-1.807.524c-.132 0-.264-.006-.395-.018a1.948 1.948 0 01-.395-.08zm1.727-6.947l-3.923 5.207a1.725 1.725 0 01-.16-.395 5.104 5.104 0 01-.186-1.357c0-.551.087-1.047.26-1.487.172-.44.409-.816.709-1.129.3-.312.654-.553 1.06-.722a3.37 3.37 0 011.303-.253 4.4 4.4 0 01.474.025c.153.017.307.054.463.111zM-4.102 24.05v-7.28a2.55 2.55 0 01.74-1.813 2.55 2.55 0 011.814-.74h2.973V10.86h-2.973c-.74 0-1.457.133-2.147.4a5.878 5.878 0 00-1.851 1.142l-1.11-1.567h-.815V24.05z"/>
      <path d="M6.156 24.05h3.381l5.034-13.214h-3.85l-2.874 8.242-2.887-8.242H1.123zM19.241 7.245a2.225 2.225 0 00-.666-1.585 2.35 2.35 0 00-.722-.48 2.196 2.196 0 00-.882-.18 2.272 2.272 0 00-1.598.66 2.27 2.27 0 00-.66 1.585c0 .313.06.605.179.876.119.272.28.509.481.71.202.202.44.362.716.481.275.12.57.18.882.18.312 0 .607-.06.882-.18.276-.12.516-.28.722-.48.206-.202.368-.439.487-.71.12-.272.18-.564.18-.877zm-.58 16.805V10.836h-3.393V24.05zM25.898 20.818l6.317-7.613a6.817 6.817 0 00-2.412-2.11 6.784 6.784 0 00-1.5-.567 6.638 6.638 0 00-1.616-.198c-.93 0-1.803.169-2.622.506a6.555 6.555 0 00-2.147 1.419 6.59 6.59 0 00-1.45 2.209c-.353.863-.53 1.817-.53 2.862 0 1.02.177 1.955.53 2.807a6.775 6.775 0 001.45 2.202 6.674 6.674 0 004.769 1.962c.551 0 1.088-.064 1.61-.191a6.586 6.586 0 001.493-.561 6.819 6.819 0 001.32-.901 6.634 6.634 0 001.08-1.197l-2.468-2.48a3.24 3.24 0 01-1.227 1.425 3.328 3.328 0 01-1.807.524c-.132 0-.264-.006-.396-.018a1.948 1.948 0 01-.394-.08zm1.727-6.947L23.7 19.078a1.71 1.71 0 01-.16-.395 5.104 5.104 0 01-.185-1.357c0-.551.086-1.047.259-1.487.173-.44.41-.816.71-1.129.3-.312.653-.553 1.06-.722a3.37 3.37 0 011.302-.253c.164 0 .323.009.475.025.152.017.306.054.463.111zM50 19.275v-8.414h-3.356v8.414c0 .23-.045.447-.136.648-.09.201-.212.378-.364.53a1.666 1.666 0 01-1.19.487c-.23.001-.447-.042-.648-.129a1.676 1.676 0 01-.53-.357 1.774 1.774 0 01-.365-.531 1.566 1.566 0 01-.135-.648v-8.414H39.92v8.414a1.626 1.626 0 01-.494 1.179 1.727 1.727 0 01-1.197.487 1.62 1.62 0 01-.647-.13 1.676 1.676 0 01-.889-.888 1.626 1.626 0 01-.13-.648v-8.414h-3.368v8.414a5.008 5.008 0 001.474 3.553c.457.453.99.81 1.599 1.074a4.889 4.889 0 001.961.395c.634 0 1.236-.109 1.808-.327a4.845 4.845 0 001.548-.956c.47.42.991.738 1.567.956a5.04 5.04 0 001.802.327c.699 0 1.355-.132 1.968-.395A5.014 5.014 0 0050 19.275z"/>
    </g>
    <g>
      <path d="M0-42.734c-2.792 0-5.076-.634-6.916-1.967-.444-.317-.508-.888-.19-1.332.317-.444.888-.508 1.332-.19 1.523 1.078 3.363 1.586 5.774 1.586 2.348 0 4.251-.508 5.71-1.587.445-.317 1.016-.19 1.333.19.317.445.19 1.016-.19 1.333C5.076-43.368 2.792-42.734 0-42.734z"/>
      <path d="M7.107-42.607c-.318-.444-.889-.508-1.333-.19-1.713 1.205-3.87 1.396-5.71 1.396-2.666 0-4.379-.444-5.775-1.46-.444-.317-1.015-.19-1.332.19-.317.445-.19 1.016.19 1.333a9.054 9.054 0 003.11 1.396c.19 1.904 1.84 3.426 3.806 3.426s3.617-1.522 3.808-3.426a8.277 8.277 0 003.045-1.396c.381-.254.508-.888.19-1.269zM0-38.419c-.825 0-1.46-.508-1.777-1.206.571.064 1.206.064 1.777.064s1.142 0 1.777-.064c-.254.698-.952 1.206-1.777 1.206zm0-45.495c-8.756 0-15.038 6.472-15.038 15.419 0 5.203 2.348 8.566 4.378 11.485 1.586 2.284 2.919 4.25 2.919 6.599 0 3.109 5.14 4.441 7.741 4.441s7.741-1.332 7.741-4.441c0-2.412 1.396-4.379 2.919-6.6 2.03-2.918 4.378-6.281 4.378-11.484 0-8.883-6.282-15.419-15.038-15.419zm-7.55 9.264a.905.905 0 01-.762.38c-.19 0-.444-.063-.571-.19-.381-.317-.508-.951-.127-1.332 2.03-2.538 4.315-3.998 7.233-4.505.508-.064 1.016.254 1.079.761.063.508-.254 1.015-.761 1.079-2.538.507-4.379 1.65-6.092 3.807zm14.403 4.886L.57-54.536a.915.915 0 01-.698.571h-.19c-.254 0-.508-.127-.698-.254l-4.315-4.314c-.38-.381-.38-.952 0-1.333s.952-.38 1.333 0l3.299 3.3 5.774-13.96c.19-.507.762-.698 1.27-.507.443.19.697.761.507 1.269zm-5.584-22.59c0-.316-.127-.634-.38-.887-.445-.508-1.333-.508-1.777 0-.254.253-.381.57-.381.888 0 .317.127.634.38.888.191.19.445.317.699.38-.635.064-1.079.635-1.079 1.27s.508 1.206 1.142 1.269a1.05 1.05 0 00-.761.317c-.254.254-.381.571-.381.889 0 .317.127.634.38.888.254.254.572.38.889.38.317 0 .635-.126.888-.38.254-.254.381-.571.381-.888 0-.318-.127-.698-.38-.889a1.17 1.17 0 00-.762-.317 1.252 1.252 0 001.142-1.269c0-.635-.444-1.142-1.079-1.27.254-.063.508-.19.698-.38.254-.254.381-.57.381-.888zm-12.183 6.917c.444-.38.571-1.079.254-1.65-.38-.507-1.015-.698-1.586-.444 0 0 .063 0 .063-.063.254-.254.381-.571.381-.889 0-.317-.127-.634-.38-.888-.508-.444-1.333-.444-1.777 0-.254.254-.381.571-.381.888 0 .318.127.635.38.889.254.254.572.38.889.38.19 0 .38-.063.508-.126-.445.38-.572 1.078-.19 1.65.253.38.634.57 1.078.57.19 0 .38-.063.57-.126l-.063.063c-.253.254-.38.571-.38.888 0 .318.127.635.38.889.254.253.572.38.889.38.317 0 .634-.127.888-.38.254-.254.38-.571.38-.889s-.126-.634-.38-.888c-.507-.38-1.079-.444-1.523-.254zm-11.04 8.63c.317 0 .634-.127.888-.381l.19-.19c-.127.57.127 1.205.698 1.459.19.063.318.127.508.127.444 0 .825-.254 1.079-.635-.064.127-.064.254-.064.381 0 .317.127.698.38.888.255.254.572.381.89.381.316 0 .634-.127.888-.38.253-.254.38-.572.38-.889 0-.317-.127-.635-.38-.888-.508-.508-1.333-.508-1.777 0l-.19.19c.126-.571-.127-1.206-.698-1.46-.572-.253-1.27-.063-1.587.445 0-.127.064-.19.064-.317 0-.318-.127-.635-.381-.889-.444-.507-1.332-.507-1.777 0-.253.254-.38.571-.38.889 0 .317.127.634.38.888.19.254.508.38.889.38zm4.06 12.373c.254-.254.381-.571.381-.889 0-.317-.127-.634-.38-.888-.508-.444-1.333-.444-1.777 0-.254.254-.38.571-.38.888-.191-.57-.762-.951-1.397-.825-.634.127-1.078.635-1.078 1.27-.064-.19-.19-.381-.318-.508-.507-.508-1.332-.508-1.776 0-.254.254-.381.571-.381.888s.127.635.38.889c.255.253.572.38.889.38s.635-.127.888-.38c.254-.254.381-.508.381-.889.19.508.635.825 1.206.825h.19c.635-.127 1.079-.634 1.079-1.269.063.19.19.38.317.508.254.253.571.38.888.38.318 0 .635-.127.889-.38zm2.856 7.995c-.254.253-.38.57-.38.888 0 .254.063.508.19.698-.508-.38-1.143-.38-1.65.063s-.571 1.142-.19 1.65c-.508-.38-1.27-.38-1.714.064-.254.253-.38.57-.38.888 0 .317.126.634.38.888s.571.38.889.38c.317 0 .634-.126.888-.38s.38-.57.38-.888a1.28 1.28 0 00-.19-.698c.254.19.508.317.825.317s.571-.127.825-.317c.444-.444.571-1.142.19-1.65.254.19.508.317.825.317s.635-.126.889-.38c.253-.254.38-.571.38-.889 0-.317-.127-.634-.38-.888-.445-.508-1.333-.508-1.777-.063zM12.563-87.34c.19.063.318.126.508.126.317 0 .635-.126.888-.38.254-.254.381-.571.381-.889 0-.317-.127-.634-.38-.888-.445-.507-1.333-.507-1.777 0-.254.254-.381.571-.381.888 0 .318.127.635.38.889 0 0 .064 0 .064.063-.57-.254-1.205-.063-1.586.444-.38.508-.254 1.27.254 1.65-.444-.19-1.079-.127-1.46.254-.253.254-.38.571-.38.888 0 .318.127.635.38.889.254.253.571.38.889.38.317 0 .634-.127.888-.38.254-.254.38-.571.38-.889 0-.317-.126-.634-.38-.888l-.063-.063c.19.063.38.126.57.126.445 0 .825-.19 1.08-.57.317-.572.19-1.206-.255-1.65zm4.823 12.5c.317 0 .634-.127.888-.381s.38-.571.38-.888c0-.127 0-.254-.063-.381.254.38.635.634 1.079.634.19 0 .317 0 .508-.127.57-.253.888-.888.698-1.459.063.064.127.127.127.19.253.254.57.381.888.381.317 0 .634-.127.888-.38.254-.254.38-.572.38-.889 0-.317-.126-.634-.38-.888-.507-.444-1.332-.444-1.776 0-.254.254-.381.57-.381.888 0 .127 0 .254.063.317-.317-.507-1.015-.761-1.586-.507-.571.254-.888.888-.698 1.46-.063-.064-.127-.128-.127-.191-.508-.508-1.332-.508-1.777 0-.253.254-.38.57-.38.888 0 .317.127.635.38.888.254.318.572.445.889.445zm7.233 9.39c-.444-.507-1.332-.507-1.776 0a1.382 1.382 0 00-.318.508c0-.634-.444-1.142-1.078-1.269-.635-.127-1.206.254-1.396.888 0-.317-.127-.634-.381-.888-.508-.444-1.332-.444-1.777 0-.253.254-.38.571-.38.888 0 .318.127.635.38.889.254.253.571.38.889.38.317 0 .634-.127.888-.38.127-.127.254-.318.317-.508 0 .635.444 1.142 1.079 1.27h.19c.571 0 1.016-.318 1.206-.826 0 .317.127.635.38.889.254.253.572.38.889.38.317 0 .634-.127.888-.38.254-.254.381-.572.381-.889 0-.38-.127-.698-.38-.952zm-7.55 12.247c.38-.508.317-1.206-.19-1.65-.445-.444-1.143-.444-1.65-.064.126-.19.19-.444.19-.698 0-.317-.127-.634-.38-.888-.445-.444-1.333-.444-1.778 0-.253.254-.38.571-.38.888 0 .318.127.635.38.889.254.254.571.38.889.38.317 0 .57-.126.825-.317a1.347 1.347 0 00.19 1.65c.254.19.571.317.825.317s.57-.127.825-.317a1.28 1.28 0 00-.19.698c0 .317.126.634.38.888s.571.381.888.381c.318 0 .635-.127.889-.38.254-.255.38-.572.38-.889 0-.317-.126-.635-.38-.888-.444-.381-1.206-.381-1.713 0z"/>
    </g>
    </symbol>


    <symbol viewBox="0 0 50 58" id="logo-short">
<path d="M25 50.888C22.208 50.888 19.924 50.254 18.084 48.921C17.64 48.604 17.576 48.033 17.894 47.589C18.211 47.145 18.782 47.081 19.226 47.399C20.749 48.477 22.589 48.985 25 48.985C27.348 48.985 29.251 48.477 30.71 47.398C31.155 47.081 31.726 47.208 32.043 47.588C32.36 48.033 32.233 48.604 31.853 48.921C30.076 50.254 27.792 50.888 25 50.888Z"/>
<path d="M32.107 51.015C31.789 50.571 31.218 50.507 30.774 50.825C29.061 52.03 26.904 52.221 25.064 52.221C22.398 52.221 20.685 51.777 19.289 50.761C18.845 50.444 18.274 50.571 17.957 50.951C17.64 51.396 17.767 51.967 18.147 52.284C19.0859 52.9421 20.1413 53.4158 21.257 53.68C21.447 55.584 23.097 57.106 25.063 57.106C27.029 57.106 28.68 55.584 28.871 53.68C29.9705 53.4271 31.0068 52.952 31.916 52.284C32.297 52.03 32.424 51.396 32.106 51.015H32.107ZM25 55.203C24.175 55.203 23.54 54.695 23.223 53.997C23.794 54.061 24.429 54.061 25 54.061C25.571 54.061 26.142 54.061 26.777 53.997C26.523 54.695 25.825 55.203 25 55.203ZM25 9.708C16.244 9.708 9.962 16.18 9.962 25.127C9.962 30.33 12.31 33.693 14.34 36.612C15.926 38.896 17.259 40.862 17.259 43.211C17.259 46.32 22.399 47.652 25 47.652C27.601 47.652 32.741 46.32 32.741 43.211C32.741 40.799 34.137 38.832 35.66 36.611C37.69 33.693 40.038 30.33 40.038 25.127C40.038 16.244 33.756 9.708 25 9.708ZM17.45 18.972C17.3639 19.093 17.2494 19.1909 17.1165 19.2572C16.9836 19.3235 16.8364 19.356 16.688 19.352C16.498 19.352 16.244 19.289 16.117 19.162C15.736 18.845 15.609 18.211 15.99 17.83C18.02 15.292 20.305 13.832 23.223 13.325C23.731 13.261 24.239 13.579 24.302 14.086C24.365 14.594 24.048 15.101 23.541 15.165C21.003 15.672 19.162 16.815 17.449 18.972H17.45ZM31.853 23.858L25.57 39.086C25.5129 39.2334 25.4186 39.3634 25.2962 39.4635C25.1739 39.5635 25.0278 39.6302 24.872 39.657H24.682C24.428 39.657 24.174 39.53 23.984 39.403L19.669 35.089C19.289 34.708 19.289 34.137 19.669 33.756C20.049 33.375 20.621 33.376 21.002 33.756L24.301 37.056L30.075 23.096C30.265 22.589 30.837 22.398 31.345 22.589C31.788 22.779 32.042 23.35 31.852 23.858H31.853ZM26.269 1.268C26.269 0.952001 26.142 0.634 25.889 0.381C25.444 -0.127 24.556 -0.127 24.112 0.381C23.858 0.634 23.731 0.951001 23.731 1.269C23.731 1.586 23.858 1.903 24.111 2.157C24.302 2.347 24.556 2.474 24.81 2.537C24.175 2.601 23.731 3.17199 23.731 3.80699C23.731 4.44199 24.239 5.013 24.873 5.076C24.7313 5.07476 24.5909 5.10221 24.4601 5.15669C24.3293 5.21117 24.2109 5.29155 24.112 5.393C23.858 5.647 23.731 5.964 23.731 6.282C23.731 6.599 23.858 6.91599 24.111 7.16999C24.365 7.42399 24.683 7.55 25 7.55C25.317 7.55 25.635 7.42399 25.888 7.16999C26.142 6.91599 26.269 6.599 26.269 6.282C26.269 5.964 26.142 5.584 25.889 5.393C25.6819 5.19828 25.4111 5.0856 25.127 5.076C25.4426 5.04821 25.7359 4.90182 25.9478 4.66632C26.1598 4.43083 26.2745 4.12376 26.269 3.80699C26.269 3.17199 25.825 2.665 25.19 2.537C25.444 2.474 25.698 2.347 25.888 2.157C26.142 1.903 26.269 1.587 26.269 1.269V1.268ZM14.086 8.185C14.53 7.805 14.657 7.106 14.34 6.535C13.96 6.028 13.325 5.837 12.754 6.091C12.754 6.091 12.817 6.091 12.817 6.028C13.071 5.774 13.198 5.457 13.198 5.139C13.198 4.822 13.071 4.505 12.818 4.251C12.31 3.807 11.485 3.807 11.041 4.251C10.787 4.505 10.66 4.822 10.66 5.139C10.66 5.457 10.787 5.774 11.04 6.028C11.294 6.282 11.612 6.408 11.929 6.408C12.119 6.408 12.309 6.345 12.437 6.282C11.992 6.662 11.865 7.35999 12.247 7.93199C12.5 8.31199 12.881 8.50199 13.325 8.50199C13.515 8.50199 13.705 8.43899 13.895 8.37599L13.832 8.439C13.579 8.693 13.452 9.01 13.452 9.327C13.452 9.645 13.579 9.962 13.832 10.216C14.086 10.469 14.404 10.596 14.721 10.596C15.038 10.596 15.355 10.469 15.609 10.216C15.863 9.962 15.989 9.645 15.989 9.327C15.989 9.009 15.863 8.693 15.609 8.439C15.102 8.059 14.53 7.995 14.086 8.185V8.185ZM3.046 16.815C3.363 16.815 3.68 16.688 3.934 16.434L4.124 16.244C3.997 16.814 4.251 17.449 4.822 17.703C5.012 17.766 5.14 17.83 5.33 17.83C5.774 17.83 6.155 17.576 6.409 17.195C6.345 17.322 6.345 17.449 6.345 17.576C6.345 17.893 6.472 18.274 6.725 18.464C6.98 18.718 7.297 18.845 7.615 18.845C7.931 18.845 8.249 18.718 8.503 18.465C8.756 18.211 8.883 17.893 8.883 17.576C8.883 17.259 8.756 16.941 8.503 16.688C7.995 16.18 7.17 16.18 6.726 16.688L6.536 16.878C6.662 16.307 6.409 15.672 5.838 15.418C5.266 15.165 4.568 15.355 4.251 15.863C4.251 15.736 4.315 15.673 4.315 15.546C4.315 15.228 4.188 14.911 3.934 14.657C3.49 14.15 2.602 14.15 2.157 14.657C1.904 14.911 1.777 15.228 1.777 15.546C1.777 15.863 1.904 16.18 2.157 16.434C2.347 16.688 2.665 16.814 3.046 16.814V16.815ZM7.106 29.188C7.36 28.934 7.487 28.617 7.487 28.299C7.487 27.982 7.36 27.665 7.107 27.411C6.599 26.967 5.774 26.967 5.33 27.411C5.076 27.665 4.95 27.982 4.95 28.299C4.759 27.729 4.188 27.348 3.553 27.474C2.919 27.601 2.475 28.109 2.475 28.744C2.411 28.554 2.285 28.363 2.157 28.236C1.65 27.728 0.825001 27.728 0.381001 28.236C0.127001 28.49 0 28.807 0 29.124C0 29.441 0.126999 29.759 0.379999 30.013C0.634999 30.266 0.951999 30.393 1.269 30.393C1.586 30.393 1.904 30.266 2.157 30.013C2.411 29.759 2.538 29.505 2.538 29.124C2.728 29.632 3.173 29.949 3.744 29.949H3.934C4.569 29.822 5.013 29.315 5.013 28.68C5.076 28.87 5.203 29.06 5.33 29.188C5.584 29.441 5.901 29.568 6.218 29.568C6.536 29.568 6.853 29.441 7.107 29.188H7.106ZM9.962 37.183C9.708 37.436 9.582 37.753 9.582 38.071C9.582 38.325 9.645 38.579 9.772 38.769C9.264 38.389 8.629 38.389 8.122 38.832C7.615 39.275 7.551 39.974 7.932 40.482C7.424 40.102 6.662 40.102 6.218 40.546C5.964 40.799 5.838 41.116 5.838 41.434C5.838 41.751 5.964 42.068 6.218 42.322C6.472 42.576 6.789 42.702 7.107 42.702C7.424 42.702 7.741 42.576 7.995 42.322C8.249 42.068 8.375 41.752 8.375 41.434C8.3801 41.1879 8.31413 40.9456 8.185 40.736C8.439 40.926 8.693 41.053 9.01 41.053C9.327 41.053 9.581 40.926 9.835 40.736C10.279 40.292 10.406 39.594 10.025 39.086C10.279 39.276 10.533 39.403 10.85 39.403C11.167 39.403 11.485 39.277 11.739 39.023C11.992 38.769 12.119 38.452 12.119 38.134C12.119 37.817 11.992 37.5 11.739 37.246C11.294 36.738 10.406 36.738 9.962 37.183V37.183ZM37.563 6.282C37.753 6.345 37.881 6.408 38.071 6.408C38.388 6.408 38.706 6.282 38.959 6.028C39.213 5.774 39.34 5.457 39.34 5.139C39.34 4.822 39.213 4.505 38.96 4.251C38.515 3.744 37.627 3.744 37.183 4.251C36.929 4.505 36.802 4.822 36.802 5.139C36.802 5.457 36.929 5.774 37.182 6.028C37.182 6.028 37.246 6.028 37.246 6.091C36.676 5.837 36.041 6.028 35.66 6.535C35.28 7.043 35.406 7.805 35.914 8.185C35.47 7.995 34.835 8.058 34.454 8.439C34.201 8.693 34.074 9.01 34.074 9.327C34.074 9.645 34.201 9.962 34.454 10.216C34.708 10.469 35.025 10.596 35.343 10.596C35.66 10.596 35.977 10.469 36.231 10.216C36.485 9.962 36.611 9.645 36.611 9.327C36.611 9.01 36.485 8.693 36.231 8.439L36.168 8.37599C36.358 8.43899 36.548 8.50199 36.738 8.50199C37.183 8.50199 37.563 8.31199 37.818 7.93199C38.135 7.35999 38.008 6.726 37.563 6.282V6.282ZM42.386 18.782C42.703 18.782 43.02 18.655 43.274 18.401C43.528 18.147 43.654 17.83 43.654 17.513C43.654 17.386 43.654 17.259 43.591 17.132C43.845 17.512 44.226 17.766 44.67 17.766C44.86 17.766 44.987 17.766 45.178 17.639C45.748 17.386 46.066 16.751 45.876 16.18C45.939 16.244 46.003 16.307 46.003 16.37C46.256 16.624 46.573 16.751 46.891 16.751C47.208 16.751 47.525 16.624 47.779 16.371C48.033 16.117 48.159 15.799 48.159 15.482C48.159 15.165 48.033 14.848 47.779 14.594C47.272 14.15 46.447 14.15 46.003 14.594C45.749 14.848 45.622 15.164 45.622 15.482C45.622 15.609 45.622 15.736 45.685 15.799C45.368 15.292 44.67 15.038 44.099 15.292C43.528 15.546 43.211 16.18 43.401 16.752C43.338 16.688 43.274 16.624 43.274 16.561C42.766 16.053 41.942 16.053 41.497 16.561C41.244 16.815 41.117 17.131 41.117 17.449C41.117 17.766 41.244 18.084 41.497 18.337C41.751 18.655 42.069 18.782 42.386 18.782V18.782ZM49.619 28.172C49.175 27.665 48.287 27.665 47.843 28.172C47.7011 28.316 47.5926 28.4894 47.525 28.68C47.525 28.046 47.081 27.538 46.447 27.411C45.812 27.284 45.241 27.665 45.051 28.299C45.051 27.982 44.924 27.665 44.67 27.411C44.162 26.967 43.338 26.967 42.893 27.411C42.64 27.665 42.513 27.982 42.513 28.299C42.513 28.617 42.64 28.934 42.893 29.188C43.147 29.441 43.464 29.568 43.782 29.568C44.099 29.568 44.416 29.441 44.67 29.188C44.797 29.061 44.924 28.87 44.987 28.68C44.987 29.315 45.431 29.822 46.066 29.95H46.256C46.827 29.95 47.272 29.632 47.462 29.124C47.462 29.441 47.589 29.759 47.842 30.013C48.096 30.266 48.414 30.393 48.731 30.393C49.048 30.393 49.365 30.266 49.619 30.013C49.873 29.759 50 29.441 50 29.124C50 28.744 49.873 28.426 49.62 28.172H49.619ZM42.069 40.419C42.449 39.911 42.386 39.213 41.879 38.769C41.434 38.325 40.736 38.325 40.229 38.705C40.355 38.515 40.419 38.261 40.419 38.007C40.419 37.69 40.292 37.373 40.039 37.119C39.594 36.675 38.706 36.675 38.261 37.119C38.008 37.373 37.881 37.69 37.881 38.007C37.881 38.325 38.008 38.642 38.261 38.896C38.515 39.15 38.832 39.276 39.15 39.276C39.467 39.276 39.72 39.15 39.975 38.959C39.8177 39.2157 39.751 39.5177 39.7854 39.8168C39.8199 40.1158 39.9535 40.3948 40.165 40.609C40.419 40.799 40.736 40.926 40.99 40.926C41.244 40.926 41.56 40.799 41.815 40.609C41.6859 40.8186 41.6199 41.0609 41.625 41.307C41.625 41.624 41.751 41.941 42.005 42.195C42.259 42.449 42.576 42.576 42.893 42.576C43.211 42.576 43.528 42.449 43.782 42.196C44.036 41.941 44.162 41.624 44.162 41.307C44.162 40.99 44.036 40.672 43.782 40.419C43.338 40.038 42.576 40.038 42.069 40.419V40.419Z"/>
    </symbol>
  </svg>
