<svg xmlns="http://www.w3.org/2000/svg">
    <symbol viewBox="-50 -86.473 100 110.77"  id="logo">
 <g>
      <path d="M-50-18.506c0 1.061.203 2.06.608 2.995a7.825 7.825 0 001.654 2.45 7.857 7.857 0 002.44 1.654c.93.405 1.925.607 2.986.607h5.132a2.539 2.539 0 012.36 1.556c.13.31.196.644.196 1.002a2.543 2.543 0 01-.742 1.814 2.526 2.526 0 01-1.814.742h-11.39v5.132h11.39c1.06 0 2.059-.203 2.994-.608a7.828 7.828 0 002.45-1.654 7.728 7.728 0 001.645-2.44c.4-.93.599-1.926.599-2.986 0-1.061-.2-2.06-.6-2.995a7.698 7.698 0 00-1.644-2.45 7.71 7.71 0 00-2.45-1.645 7.547 7.547 0 00-2.994-.599h-5.132a2.542 2.542 0 01-1.815-.742 2.509 2.509 0 01-.545-.822 2.606 2.606 0 01-.196-1.01 2.543 2.543 0 01.741-1.815 2.547 2.547 0 011.815-.742h11.765v-5.132h-11.765c-1.06 0-2.056.203-2.986.608a7.857 7.857 0 00-2.44 1.654 7.857 7.857 0 00-1.654 2.44A7.389 7.389 0 00-50-18.505zM-1.86-13.267c0-1.216-.157-2.39-.473-3.522a13.322 13.322 0 00-1.332-3.165 13.248 13.248 0 00-2.074-2.682 13.218 13.218 0 00-2.682-2.074 13.313 13.313 0 00-3.165-1.332 13.047 13.047 0 00-3.522-.474c-1.216 0-2.387.159-3.514.474-1.126.316-2.18.76-3.164 1.332a13.107 13.107 0 00-2.69 2.074c-.812.811-1.506 1.705-2.084 2.682a13.099 13.099 0 00-1.815 6.687c0 1.216.158 2.387.474 3.514a13.298 13.298 0 003.424 5.855 13.295 13.295 0 005.855 3.424c1.127.316 2.298.474 3.514.474 1.216 0 2.39-.158 3.522-.474a13.09 13.09 0 003.165-1.341A13.463 13.463 0 00-5.74-3.898c.81-.81 1.502-1.707 2.074-2.69a13.528 13.528 0 001.332-3.165c.316-1.127.474-2.298.474-3.514zm-5.095 0c0 1.12-.214 2.172-.644 3.156a8.398 8.398 0 01-1.743 2.584 8.152 8.152 0 01-2.592 1.752 7.928 7.928 0 01-3.174.644 7.908 7.908 0 01-3.183-.644 8.287 8.287 0 01-2.592-1.752 8.325 8.325 0 01-1.752-2.584 7.802 7.802 0 01-.644-3.156c0-1.12.214-2.178.644-3.173a8.163 8.163 0 011.752-2.593 8.376 8.376 0 012.592-1.743 7.916 7.916 0 013.183-.644c1.12 0 2.178.215 3.174.644.995.429 1.859 1.01 2.592 1.743A8.233 8.233 0 01-7.6-16.44c.43.995.644 2.053.644 3.173zM18.604-.554v-5.132H5.784v-20.508H.652v25.64zM25.55-.554v-25.64h-5.132v25.64zM50-13.374a12.62 12.62 0 00-1.752-6.463 13.21 13.21 0 00-2.003-2.593 12.718 12.718 0 00-2.592-2.012 12.84 12.84 0 00-3.067-1.296 12.643 12.643 0 00-3.406-.456h-7.724v25.64h7.724c1.18 0 2.316-.152 3.406-.456a12.84 12.84 0 003.067-1.296c.953-.56 1.817-1.231 2.592-2.012a13.226 13.226 0 002.003-2.592A12.626 12.626 0 0050-13.374zm-5.131 0c0 1.06-.2 2.06-.6 2.995a7.704 7.704 0 01-1.644 2.45 7.7 7.7 0 01-2.45 1.644c-.936.4-1.934.6-2.995.6h-2.557v-15.377h2.557c1.061 0 2.06.202 2.995.608a7.828 7.828 0 012.45 1.654 7.728 7.728 0 011.645 2.44c.399.93.599 1.925.599 2.986z"/>
    </g>
    <g>
      <path d="M-45.472 7.245a2.232 2.232 0 00-.666-1.585 2.346 2.346 0 00-.722-.48 2.195 2.195 0 00-.882-.18 2.272 2.272 0 00-1.598.66A2.276 2.276 0 00-50 7.245c0 .313.06.605.179.876.12.272.28.509.481.71.202.202.44.362.716.481.275.12.57.18.882.18.312 0 .606-.06.882-.18s.516-.28.722-.48c.205-.202.368-.439.487-.71.12-.272.18-.564.18-.877zm-.58 16.805V10.836h-3.393V24.05zM-40.703 24.05V16.5c0-.346.065-.673.197-.982a2.521 2.521 0 011.357-1.35 2.548 2.548 0 011-.198c.345 0 .67.066.975.197a2.555 2.555 0 011.344 1.351c.132.309.198.636.198.981v7.551h3.368V16.5c0-.815-.154-1.582-.463-2.302a6.011 6.011 0 00-1.264-1.888 5.91 5.91 0 00-1.876-1.27 5.704 5.704 0 00-2.282-.463 5.904 5.904 0 00-3.997 1.542l-1.111-1.283h-.815V24.05zM-24.004 24.05h2.554v-3.356h-2.554a2.48 2.48 0 01-.999-.204 2.536 2.536 0 01-1.555-2.35v-3.924h5.108v-3.355h-5.108V5.58h-3.356v5.28h-1.64v3.356h1.64v3.924c0 .814.154 1.58.463 2.295a5.984 5.984 0 003.152 3.153c.716.308 1.48.462 2.295.462zM-14.892 20.818l6.317-7.613a6.815 6.815 0 00-2.412-2.11 6.793 6.793 0 00-1.5-.567 6.638 6.638 0 00-1.615-.198c-.93 0-1.804.169-2.622.506a6.555 6.555 0 00-2.147 1.419 6.59 6.59 0 00-1.45 2.209c-.354.863-.53 1.817-.53 2.862 0 1.02.176 1.955.53 2.807a6.775 6.775 0 001.45 2.202 6.674 6.674 0 004.769 1.962 6.77 6.77 0 001.61-.191A6.598 6.598 0 00-11 23.545a6.827 6.827 0 001.32-.901 6.636 6.636 0 001.08-1.197l-2.468-2.48a3.24 3.24 0 01-1.228 1.425 3.326 3.326 0 01-1.807.524c-.132 0-.264-.006-.395-.018a1.948 1.948 0 01-.395-.08zm1.727-6.947l-3.923 5.207a1.725 1.725 0 01-.16-.395 5.104 5.104 0 01-.186-1.357c0-.551.087-1.047.26-1.487.172-.44.409-.816.709-1.129.3-.312.654-.553 1.06-.722a3.37 3.37 0 011.303-.253 4.4 4.4 0 01.474.025c.153.017.307.054.463.111zM-4.102 24.05v-7.28a2.55 2.55 0 01.74-1.813 2.55 2.55 0 011.814-.74h2.973V10.86h-2.973c-.74 0-1.457.133-2.147.4a5.878 5.878 0 00-1.851 1.142l-1.11-1.567h-.815V24.05z"/>
      <path d="M6.156 24.05h3.381l5.034-13.214h-3.85l-2.874 8.242-2.887-8.242H1.123zM19.241 7.245a2.225 2.225 0 00-.666-1.585 2.35 2.35 0 00-.722-.48 2.196 2.196 0 00-.882-.18 2.272 2.272 0 00-1.598.66 2.27 2.27 0 00-.66 1.585c0 .313.06.605.179.876.119.272.28.509.481.71.202.202.44.362.716.481.275.12.57.18.882.18.312 0 .607-.06.882-.18.276-.12.516-.28.722-.48.206-.202.368-.439.487-.71.12-.272.18-.564.18-.877zm-.58 16.805V10.836h-3.393V24.05zM25.898 20.818l6.317-7.613a6.817 6.817 0 00-2.412-2.11 6.784 6.784 0 00-1.5-.567 6.638 6.638 0 00-1.616-.198c-.93 0-1.803.169-2.622.506a6.555 6.555 0 00-2.147 1.419 6.59 6.59 0 00-1.45 2.209c-.353.863-.53 1.817-.53 2.862 0 1.02.177 1.955.53 2.807a6.775 6.775 0 001.45 2.202 6.674 6.674 0 004.769 1.962c.551 0 1.088-.064 1.61-.191a6.586 6.586 0 001.493-.561 6.819 6.819 0 001.32-.901 6.634 6.634 0 001.08-1.197l-2.468-2.48a3.24 3.24 0 01-1.227 1.425 3.328 3.328 0 01-1.807.524c-.132 0-.264-.006-.396-.018a1.948 1.948 0 01-.394-.08zm1.727-6.947L23.7 19.078a1.71 1.71 0 01-.16-.395 5.104 5.104 0 01-.185-1.357c0-.551.086-1.047.259-1.487.173-.44.41-.816.71-1.129.3-.312.653-.553 1.06-.722a3.37 3.37 0 011.302-.253c.164 0 .323.009.475.025.152.017.306.054.463.111zM50 19.275v-8.414h-3.356v8.414c0 .23-.045.447-.136.648-.09.201-.212.378-.364.53a1.666 1.666 0 01-1.19.487c-.23.001-.447-.042-.648-.129a1.676 1.676 0 01-.53-.357 1.774 1.774 0 01-.365-.531 1.566 1.566 0 01-.135-.648v-8.414H39.92v8.414a1.626 1.626 0 01-.494 1.179 1.727 1.727 0 01-1.197.487 1.62 1.62 0 01-.647-.13 1.676 1.676 0 01-.889-.888 1.626 1.626 0 01-.13-.648v-8.414h-3.368v8.414a5.008 5.008 0 001.474 3.553c.457.453.99.81 1.599 1.074a4.889 4.889 0 001.961.395c.634 0 1.236-.109 1.808-.327a4.845 4.845 0 001.548-.956c.47.42.991.738 1.567.956a5.04 5.04 0 001.802.327c.699 0 1.355-.132 1.968-.395A5.014 5.014 0 0050 19.275z"/>
    </g>
    <path d="M-25-39.176v2.66c2.446-.772 4.764-1.502 6.867-2.231V-84.241L-25-86.473v47.297zM24.828-69.82v.171l.172.043v-.128l-.215-.086zm0 .944v.172H25v-.13l-.215-.042zm0 .901v.172H25v-.086h-.215zm0 .944v.13l.172.042v-.172h-.215zm0 .859v.214H25v-.128l-.215-.043zm0 .944v.215H25v-.172h-.215zm0 .944v.129H25v-.086h-.215zm0 .901v.172H25v-.172h-.215zm0 .902v.171H25v-.128h-.215zm0 .944v.129H25v-.129h-.215zm0 .901v.172H25v-.172h-.215zm0 .902v.171H25v-.171h-.215zm0 .944v.129H25v-.172h-.215zm0 .901v.172H25v-.215h-.215zm0 .944v.086H25v-.129h-.215zm0 .859v.214l.172-.043v-.171h-.215zm0 .944v.172H25v-.258l-.215.086zm0 .944v.129H25v-.215a12.446 12.446 0 01-.172 0zm-.987-15.966v.215l.215.043v-.172l-.215-.043zm0 .945v.214l.215.043v-.172l-.215-.042zm0 .944v.257l.215.043v-.214l-.215-.043zm0 .944v.215l.215.043v-.172h-.215zm0 .944v.215l.215.043v-.172h-.215zm0 .944v.215l.215.043v-.172h-.215zm0 .988v.171l.215.043v-.172h-.215zm0 .944v.214h.215v-.171h-.215zm0 .944v.215h.215v-.172h-.215zm0 .944v.215h.215v-.172h-.215zm0 .944v.215a31.33 31.33 0 01.215 0v-.172h-.215zm0 .945v.3h.215v-.258h-.215zm0 .987v.171h.215v-.171h-.215zm0 .944v.214l.215-.042v-.172h-.215zm0 .944v.215l.215-.043v-.172h-.215zm0 .944v.215l.215-.043v-.172l-.215.043zm0 .945v.257h.215v-.257l-.215.042zm0 .944v.214l.215-.043v-.171l-.215.043zm-1.073-16.481v.258l.258.085v-.257l-.258-.086zm0 .987v.258l.258.086v-.258l-.258-.086zm0 .987v.3l.258.044v-.258a21.46 21.46 0 00-.258-.086zm0 .987v.258l.258.086v-.258l-.258-.129zm0 .988v.3h.258v-.172l-.258-.128zm0 .987v.3h.258v-.257h-.258zm0 .987v.3h.258v-.257h-.258zm0 .987v.3h.258v-.257h-.258zm0 1.03v.257h.258v-.257h-.258zm0 .944v.3h.258v-.257h-.258zm0 1.03v.258h.258v-.344h-.258zm0 .987v.258h.258v-.344h-.258zm0 .987v.258l.258-.043v-.257h-.258zm0 .988v.257l.258-.043v-.3h-.258zm0 .987v.214h.258v-.257h-.258zm0 .987v.257l.258-.086v-.257l-.258.086zm0 .987v.257l.258-.085v-.215a22.232 22.232 0 01-.258.086zm0 .987v.258a34.807 34.807 0 00.258-.086v-.258l-.258.086zM21.61-70.85v.257l.344.086v-.257l-.344-.13zm0 .987v.343l.344.086v-.343l-.344-.086zm0 1.03v.386c.086 0 .215 0 .344.086v-.386l-.344-.086zm0 1.03v.343l.344.043v-.3a40.515 40.515 0 00-.344-.086zm0 1.03v.343h.344v-.3h-.344zm0 1.03v.343h.344v-.257l-.344-.086zm0 1.03v.3l.344.043v-.3l-.344-.043zm0 1.03v.3l.344.043v-.3l-.344-.086zm0 1.03v.3h.344v-.257h-.344zm0 1.03v.3h.344v-.257h-.344zm0 1.03v.3h.344v-.3h-.344zm0 1.03v.3h.344v-.343h-.344zm0 1.03v.3h.344v-.343h-.344zm0 1.03v.3l.344-.042v-.3h-.344zm0 1.03v.3l.344-.042v-.343l-.344.128zm0 1.03v.3l.344-.085v-.3l-.344.085zm0 1.03v.3l.344-.085v-.3c-.129 0-.258 0-.344.085zm0 1.03v.3a32.232 32.232 0 00.344-.085v-.343l-.344.129zm-1.287-17.94v.43l.43.086v-.387l-.43-.128zm0 1.074v.429l.43.086v-.387l-.43-.128zm0 1.073v.429c.172 0 .3 0 .43.086v-.43c-.13 0-.258 0-.43-.085zm0 1.072v.43l.43.043v-.387l-.43-.086zm0 1.073v.43h.43v-.3l-.43-.087zm0 1.073v.43h.43v-.344l-.43-.086zm0 1.073v.43h.43v-.387h-.43zm0 1.073v.43h.43v-.43h-.43zm0 1.073v.43h.43v-.43h-.43zm0 1.073v.387h.43v-.387h-.43zm0 1.073v.43l.43-.044v-.429l-.43.043zm0 1.073v.386h.43v-.429l-.43.043zm0 1.073v.386l.43-.043v-.386l-.43.043zm0 1.073v.386l.43-.043v-.429l-.43.086zm0 1.073v.386l.43-.086v-.386l-.43.086zm0 1.073v.386l.43-.086v-.429c-.13.086-.258.086-.43.129zm0 1.073v.386c.172 0 .3-.086.43-.129v-.343l-.43.086zm0 1.073v.386l.43-.129v-.386a311.159 311.159 0 01-.43.129zm-1.374-18.67v.43l.558.171v-.429l-.558-.172zm0 1.116v.43l.558.171v-.429l-.558-.215zm0 1.116v.43l.558.128v-.43l-.558-.128zm0 1.116v.43l.558.128v-.43l-.558-.17zm0 1.116v.43l.558.128v-.43l-.558-.171zm0 1.116v.429l.558.086v-.43l-.558-.085zm0 1.116v.429l.558.086v-.472l-.558-.086zm0 1.116v.429l.558.086v-.43l-.558-.128zm0 1.115v.43l.558.043v-.43h-.558zm0 1.116v.43h.558v-.43h-.558zm0 1.116v.472h.558v-.515h-.558zm0 1.116v.472h.558v-.515h-.558zm0 1.116v.472l.558-.043v-.429h-.558zm0 1.159v.429l.558-.086v-.43l-.558.087zm0 1.116v.429l.558-.086v-.43c-.214 0-.386 0-.558.087zm0 1.116v.429l.558-.086v-.43c-.214 0-.386 0-.558.087zm0 1.115v.43l.558-.13v-.428c-.214 0-.386.085-.558.128zm0 1.116v.43l.558-.13v-.428c-.214 0-.386.085-.558.128zm-1.502-19.57v.514l.644.215v-.472a165.15 165.15 0 00-.6-.258zm0 1.158v.558l.644.172v-.515a195.58 195.58 0 00-.6-.172zm0 1.16v.557l.644.129v-.43l-.6-.214zm0 1.2v.516l.644.129v-.473l-.6-.128zm0 1.16v.558l.644.085v-.472l-.6-.129zm0 1.158v.601l.644.086v-.515l-.6-.129zm0 1.202v.515l.644.086v-.515l-.6-.043zm0 1.159v.515l.644.043v-.472l-.6-.043zm0 1.159v.558h.644v-.472h-.6zm0 1.158v.644h.644v-.558h-.6zm0 1.202v.515h.644v-.558h-.6zm0 1.159v.515h.644v-.515h-.6zm0 1.159v.558l.644-.086v-.472l-.6.043zm0 1.159v.558l.644-.086v-.472l-.6.043zm0 1.201v.515l.644-.128v-.473l-.6.13zm0 1.16v.557l.644-.172v-.472l-.6.129zm0 1.158v.6l.644-.17v-.516l-.6.129zm0 1.202v.515l.644-.172v-.515c-.172 0-.43.129-.6.215zm-1.673-20.43v.601l.858.258v-.601l-.858-.258zm0 1.245v.558l.858.258v-.601l-.858-.215zm0 1.202v.644l.858.171v-.6l-.858-.215zm0 1.244v.601l.858.172v-.6l-.858-.173zm0 1.202v.644c.3 0 .557.086.858.129v-.601l-.858-.172zm0 1.288v.558l.858.128v-.6l-.858-.172zm0 1.201v.601l.858.086v-.6l-.858-.087zm0 1.202v.644h.858v-.558l-.858-.086zm0 1.245v.558h.858v-.472l-.858-.086zm0 1.201v.644h.858v-.6h-.858zm0 1.245v.601h.858v-.6h-.858zm0 1.245v.6l.858-.042v-.687l-.858.129zm0 1.201v.644l.858-.086v-.643l-.858.085zm0 1.245v.601l.858-.086v-.644l-.858.13zm0 1.202v.644l.858-.172v-.6l-.858.128zm0 1.244v.601c.3 0 .557-.043.858-.171v-.601l-.858.171zm0 1.245v.601l.858-.215v-.6l-.858.214zm0 1.202v.687l.858-.3v-.559l-.858.172zm-1.803-21.46v.687l.944.3v-.686a286.695 286.695 0 00-.944-.3zm0 1.288v.687l.944.257v-.686l-.944-.258zm0 1.288v.73l.944.214v-.687l-.944-.257zm0 1.287v.73l.944.172v-.687l-.944-.215zm0 1.288v.73c.343-.044.644.085.944.128v-.687a302.747 302.747 0 00-.944-.171zm0 1.287v.73c.343-.043.644.086.944.129v-.73l-.944-.129zm0 1.288v.73l.944.085v-.686l-.944-.13zm0 1.287v.73l.944.043v-.687l-.944-.086zm0 1.288v.73h.944v-.687h-.944zm0 1.288v.73h.944v-.688h-.944zm0 1.287v.73l.944-.043v-.687h-.944zm0 1.288v.73l.944-.087v-.686l-.944.043zm0 1.287v.73l.944-.043v-.773l-.944.086zm0 1.288v.73l.944-.13v-.686l-.944.129zm0 1.287v.73l.944-.172v-.686l-.944.171zm0 1.288v.73l.944-.215v-.687l-.944.215zm0 1.287v.73l.944-.215v-.686a231.674 231.674 0 01-.944.214zm0 1.288v.73l.944-.258v-.644a418.326 418.326 0 01-.944.258zm-2.06-22.532v.858l1.159.3v-.815l-1.16-.386zm0 1.373v.816l1.159.3v-.858l-1.16-.3zm0 1.374v.73l1.159.257v-.773l-1.16-.257zm0 1.33v.858l1.159.172v-.772l-1.16-.3zm0 1.373v.816l1.159.172v-.816l-1.16-.214zm0 1.374v.815c.43 0 .772.086 1.159.129v-.858l-1.16-.13zm0 1.33v.859c.43 0 .772 0 1.159.086v-.902l-1.16-.086zm0 1.374v.815h1.202v-.772l-1.202-.086zm0 1.373v.73h1.159v-.73l-1.16-.043zm0 1.33v.859l1.202-.129v-.772H11.91zm0 1.374v.815l1.202-.085v-.816H11.91zm0 1.33v.859l1.202-.215v-.73l-1.202.044zm0 1.374v.858l1.202-.257v-.73l-1.202.086zm0 1.373v.816l1.202-.215v-.815l-1.202.171zm0 1.33v.859l1.202-.3v-.773l-1.202.172zm0 1.374v.858l1.202-.386v-.73l-1.202.215zm0 1.373v.816l1.202-.343v-.73l-1.202.215zm0 1.33v.86l1.202-.43v-.772l-1.202.3zM9.764-74.841v.902l1.373.429v-.944l-1.373-.387zm0 1.417v.944l1.288.343v-.858l-1.288-.472zm0 1.459v.901l1.288.343v-.9l-1.288-.344zm0 1.416v.944l1.288.258v-.859l-1.288-.386zm0 1.46v.9l1.288.215v-.858l-1.288-.3zm0 1.416v.944l1.288.172v-.902l-1.288-.214zm0 1.459v.901l1.288.129v-.858l-1.288-.215zm0 1.416v.944l1.288.043v-.858L9.764-64.8zm0 1.416v.945h1.288v-.859l-1.288-.086zm0 1.46v.901h1.288v-.858l-1.288-.086zm0 1.416v.944l1.288-.086v-.858H9.764zm0 1.46v.9l1.288-.085v-.902l-1.288.086zm0 1.416v.944l1.288-.172v-.858l-1.288.043zm0 1.459v.901l1.288-.172v-.9c-.387 0-.859.085-1.288.17zm0 1.416v.944l1.288-.257v-.901l-1.288.214zm0 1.46v.9l1.288-.3v-.858l-1.288.214zm0 1.416v.944l1.288-.343v-.902l-1.288.3zm0 1.459v.858l1.288-.343v-.858l-1.288.343zM7.189-75.743v1.073l1.717.515v-.987l-1.717-.601zm0 1.545v1.03l1.674.43v-.945l-1.674-.472zm0 1.502v1.073l1.717.43v-1.03a707.983 707.983 0 00-1.717-.43zm0 1.545v1.03l1.717.387v-1.03a1814.206 1814.206 0 00-1.717-.344zm0 1.502v1.073l1.717.3v-1.03a974.163 974.163 0 00-1.717-.3zm0 1.545v1.03l1.717.258v-1.03a1253.648 1253.648 0 00-1.717-.172zm0 1.503v1.073c.6.042 1.116.085 1.717.171v-1.03l-1.717-.171zm0 1.588v1.03l1.717.085v-.987a955.193 955.193 0 00-1.717-.128zm0 1.502v1.073h1.717v-.987l-1.717-.086zm0 1.502v1.073h1.717v-1.073H7.189zm0 1.545v1.03h1.717v-1.073H7.189zm0 1.502v1.073l1.717-.129v-1.03l-1.717.086zm0 1.545v.987l1.717-.128v-1.03a1148.498 1148.498 0 01-1.717.171zm0 1.502v1.073l1.717-.3v-.987l-1.717.214zm0 1.545v1.03l1.717-.3v-.987l-1.717.257zm0 1.503v1.072l1.717-.386v-.987l-1.717.3zm0 1.545v1.03l1.717-.43v-.987l-1.717.387zm0 1.502v1.116l1.717-.515v-1.03l-1.717.429zM4.356-76.601v1.201l2.017.601V-76l-2.017-.643zm0 1.63v1.202l2.017.515v-1.201l-2.017-.558zm0 1.631v1.202l2.017.43v-1.202l-2.017-.473zm0 1.588v1.16l2.017.428v-1.244l-2.017-.387zm0 1.631v1.202l2.017.3v-1.115l-2.017-.43zm0 1.631v1.202l2.017.257v-1.201l-2.017-.3zm0 1.631v1.202l2.017.171v-1.244l-2.017-.172zm0 1.588v1.202l2.017.129v-1.202l-2.017-.172zm0 1.631v1.202h2.017v-1.16l-2.017-.085zm0 1.63v1.203l2.017-.086v-1.159H4.356zm0 1.589v1.202l2.017-.13v-1.158l-2.017.043zm0 1.63v1.202l2.017-.214v-1.116l-2.017.086zm0 1.632v1.158l2.017-.257v-1.116l-2.017.172zm0 1.63v1.202l2.017-.386v-1.116l-2.017.258zm0 1.589v1.201l2.017-.386v-1.159l-2.017.3zm0 1.63v1.202l2.017-.429v-1.202l-2.017.43zm0 1.631v1.116l2.017-.472v-1.159l-2.017.43zm0 1.631v1.202l2.017-.644v-1.159l-2.017.558zM1.18-77.718v1.374l2.404.687v-1.288a1909.228 1909.228 0 01-2.404-.772zm0 1.717v1.374l2.404.644v-1.33l-2.404-.73zm0 1.717v1.417l2.404.515v-1.245l-2.404-.644zm0 1.76v1.373l2.404.43v-1.288l-2.404-.515zm0 1.717v1.373l2.404.386v-1.287a2474.249 2474.249 0 01-2.404-.43zm0 1.716v1.417l2.404.257v-1.287l-2.404-.344zm0 1.76v1.373l2.404.215v-1.288l-2.404-.343zm0 1.717v1.373l2.404.129V-65.4a8243.348 8243.348 0 01-2.404-.214zm0 1.716v1.374l2.36.086v-1.288c-.772-.129-1.501-.172-2.36-.172zm0 1.717v1.46l2.36-.086v-1.288l-2.36-.043zm0 1.76v1.416l2.36-.171v-1.288l-2.36.043zm0 1.717v1.416l2.36-.215v-1.287l-2.36.043zm0 1.716v1.417l2.36-.3v-1.288l-2.36.214zm0 1.76v1.373l2.36-.429v-1.287l-2.36.343zm0 1.717v1.373l2.36-.429v-1.288l-2.36.3zm0 1.716v1.374l2.36-.515v-1.288l-2.36.43zm0 1.717v1.417l2.36-.601v-1.288l-2.36.472zm0 1.76v1.373l2.36-.686v-1.288l-2.36.6zm-3.734-30.644v1.588c1.03.258 1.975.558 2.919.858v-1.545l-2.919-.9zm0 1.889v1.545l2.919.73v-1.46a2677.21 2677.21 0 01-2.919-.858zm0 1.845v1.545l2.919.644v-1.416l-2.919-.773zm0 1.845v1.546c1.03.214 1.975.429 2.919.558v-1.46l-2.919-.644zm0 1.846v1.588l2.919.43v-1.46l-2.919-.558zm0 1.888v1.545l2.919.344v-1.46l-2.919-.429zm0 1.846v1.502l2.919.258v-1.417l-2.919-.343zm0 1.845v1.545l2.919.172v-1.46l-2.919-.257zm0 1.846v1.588l2.919.043v-1.46l-2.919-.214zm0 1.888v1.502H.365v-1.459l-2.919-.043zm0 1.846v1.545l2.919-.129v-1.46h-2.919zm0 1.845v1.545l2.919-.214v-1.502l-2.919.171zm0 1.846v1.588l2.919-.344v-1.502l-2.919.258zm0 1.888v1.545l2.919-.429v-1.502l-2.919.386zm0 1.846v1.545l2.919-.515v-1.502l-2.919.429zm0 1.845v1.545l2.919-.6v-1.546l-2.919.601zm0 1.846v1.588l2.919-.773v-1.46l-2.919.645zm0 1.888v1.545l2.919-.858v-1.46l-2.919.773zm-4.291-33.004v1.76l3.562 1.072v-1.716a1921.46 1921.46 0 01-3.52-1.073zm0 2.017v1.717l3.562.944v-1.631a3016.095 3016.095 0 01-3.52-1.03zm0 1.974v1.803l3.562.772v-1.674a2410 2410 0 01-3.52-.858zm0 2.017v1.76l3.605.73v-1.717a2789.785 2789.785 0 01-3.563-.773zm0 2.018v1.76l3.562.557v-1.674l-3.52-.6zm0 2.017v1.716c1.287.172 2.446.344 3.562.43v-1.588l-3.52-.558zm0 1.974v1.76l3.562.343v-1.76a6332.189 6332.189 0 01-3.52-.3zm0 2.017v1.76l3.562.214v-1.716l-3.52-.215zm0 2.017v1.717l3.562.086v-1.631l-3.52-.172zm0 1.975v1.76h3.562v-1.718h-3.52zm0 2.017v1.76l3.605-.172v-1.674l-3.563.129zm0 1.974v1.803l3.605-.3v-1.718l-3.563.215zm0 2.017v1.76l3.562-.43V-56.6l-3.52.257zm0 2.017v1.76l3.605-.515V-54.8l-3.52.43zm0 2.017v1.717l3.605-.6v-1.674l-3.563.557zm0 1.975v1.802l3.605-.815v-1.674l-3.563.687zm0 2.017v1.76l3.605-.859v-1.717l-3.563.859zm0 2.017v1.717l3.605-.944v-1.717l-3.563.944zm-4.979-35.751v2.017l4.42 1.288v-1.889l-4.463-1.416zm0 2.146v2.06l4.42 1.116v-1.889l-4.463-1.287zm0 2.189v2.06l4.42.987v-1.931l-4.463-1.116zm0 2.189v2.017l4.42.858v-1.888l-4.463-.987zm0 2.145v2.06l4.42.687v-1.888l-4.463-.859zm0 2.19v2.06l4.42.514v-1.888l-4.463-.687zm0 2.188v2.017l4.42.43v-1.975l-4.463-.472zm0 2.146v2.06l4.42.215v-1.846l-4.463-.429zm0 2.232v2.017l4.42.086v-1.889l-4.463-.214zm0 2.146v2.017l4.42-.043v-1.931l-4.463-.043zm0 2.146v2.06l4.42-.215v-1.888l-4.463.086zm0 2.231v2.018l4.42-.387v-1.888l-4.463.257zm0 2.146v2.103l4.42-.6v-1.889l-4.42.43zm0 2.19v2.016l4.42-.686v-1.846l-4.463.515zm0 2.145v2.06l4.42-.858v-1.803l-4.463.644zm0 2.189v2.06l4.42-.987v-1.888l-4.42.858zm0 2.189v2.017l4.42-1.116v-1.931l-4.463 1.03zm0 2.146v2.06l4.42-1.288v-1.888l-4.463 1.159zm-5.966-38.884v2.231l5.45 1.588v-2.146l-5.45-1.716zm0 2.36v2.318l5.45 1.416v-2.146l-5.45-1.63zm0 2.404v2.317l5.45 1.159v-2.146l-5.45-1.373zm0 2.36v2.318l5.45 1.03v-2.146l-5.45-1.245zm0 2.36v2.361l5.45.859v-2.146l-5.45-1.16zm0 2.404v2.318l5.45.686v-2.146l-5.45-.944zm0 2.36v2.361l5.45.43v-2.147l-5.45-.643zm0 2.404v2.318l5.45.3v-2.146l-5.45-.515zm0 2.36v2.361l5.45.086v-2.146l-5.45-.343zm0 2.404v2.275l5.45-.086v-2.146l-5.45-.086zm0 2.36v2.318l5.45-.257v-2.146h-5.45zm0 2.361v2.36l5.45-.515v-2.145l-5.45.257zm0 2.403v2.318l5.45-.687v-2.146l-5.45.472zm0 2.36v2.361l5.45-.858v-2.146l-5.45.601zm0 2.404v2.318l5.45-1.073v-2.146l-5.45.858zm0 2.36v2.361l5.45-1.287v-2.146l-5.45 1.03zm0 2.404v2.318l5.45-1.416v-2.146l-5.45 1.158zm0 2.36v2.361l5.45-1.588v-2.146l-5.45 1.33zm42.618-9.699v.172l.172-.043v-.215l-.215.043zm-.987.258v.171l.215-.042v-.215l-.215.086zm-1.073.3v.258l.258-.129v-.215a30.73 30.73 0 01-.258.086zm-1.159.3v.344l.344-.129v-.3l-.344.086zm-1.287.387v.386l.43-.129v-.429l-.43.172zm-1.374.386v.43l.558-.086v-.43c-.214 0-.386.086-.558.13zm-1.502.43v.514l.644-.171v-.558l-.6.214zm-1.673.429v.643l.858-.257v-.601l-.858.257zm-1.803.6v.601l.944-.257v-.687a408.069 408.069 0 01-.944.3zm-2.06.515v.859l1.159-.43v-.772l-1.16.343zm-2.146.644v.944l1.288-.429v-.987l-1.288.472zm-2.575.73v1.03l1.717-.515v-1.03l-1.717.515zm-2.833.772v1.202l2.017-.644v-1.116l-2.017.558zm-3.176.945v1.287L3.54-46v-1.287l-2.36.73zm-3.734 1.03v1.545l2.919-.945v-1.459l-2.919.859zm-4.291 1.201v1.803l3.605-1.159V-45.4c-1.16.43-2.36.773-3.563 1.116zm-5.022 1.46v2.017l4.42-1.46v-1.888l-4.42 1.288zm-5.923 1.673v2.318l5.45-1.76v-2.146l-5.45 1.588z"/>
    </symbol>

    <symbol viewBox="-50 -86.473 0 60 60" id="logo-short">
    <path d="M-25-39.176v2.66c2.446-.772 4.764-1.502 6.867-2.231V-84.241L-25-86.473v47.297zM24.828-69.82v.171l.172.043v-.128l-.215-.086zm0 .944v.172H25v-.13l-.215-.042zm0 .901v.172H25v-.086h-.215zm0 .944v.13l.172.042v-.172h-.215zm0 .859v.214H25v-.128l-.215-.043zm0 .944v.215H25v-.172h-.215zm0 .944v.129H25v-.086h-.215zm0 .901v.172H25v-.172h-.215zm0 .902v.171H25v-.128h-.215zm0 .944v.129H25v-.129h-.215zm0 .901v.172H25v-.172h-.215zm0 .902v.171H25v-.171h-.215zm0 .944v.129H25v-.172h-.215zm0 .901v.172H25v-.215h-.215zm0 .944v.086H25v-.129h-.215zm0 .859v.214l.172-.043v-.171h-.215zm0 .944v.172H25v-.258l-.215.086zm0 .944v.129H25v-.215a12.446 12.446 0 01-.172 0zm-.987-15.966v.215l.215.043v-.172l-.215-.043zm0 .945v.214l.215.043v-.172l-.215-.042zm0 .944v.257l.215.043v-.214l-.215-.043zm0 .944v.215l.215.043v-.172h-.215zm0 .944v.215l.215.043v-.172h-.215zm0 .944v.215l.215.043v-.172h-.215zm0 .988v.171l.215.043v-.172h-.215zm0 .944v.214h.215v-.171h-.215zm0 .944v.215h.215v-.172h-.215zm0 .944v.215h.215v-.172h-.215zm0 .944v.215a31.33 31.33 0 01.215 0v-.172h-.215zm0 .945v.3h.215v-.258h-.215zm0 .987v.171h.215v-.171h-.215zm0 .944v.214l.215-.042v-.172h-.215zm0 .944v.215l.215-.043v-.172h-.215zm0 .944v.215l.215-.043v-.172l-.215.043zm0 .945v.257h.215v-.257l-.215.042zm0 .944v.214l.215-.043v-.171l-.215.043zm-1.073-16.481v.258l.258.085v-.257l-.258-.086zm0 .987v.258l.258.086v-.258l-.258-.086zm0 .987v.3l.258.044v-.258a21.46 21.46 0 00-.258-.086zm0 .987v.258l.258.086v-.258l-.258-.129zm0 .988v.3h.258v-.172l-.258-.128zm0 .987v.3h.258v-.257h-.258zm0 .987v.3h.258v-.257h-.258zm0 .987v.3h.258v-.257h-.258zm0 1.03v.257h.258v-.257h-.258zm0 .944v.3h.258v-.257h-.258zm0 1.03v.258h.258v-.344h-.258zm0 .987v.258h.258v-.344h-.258zm0 .987v.258l.258-.043v-.257h-.258zm0 .988v.257l.258-.043v-.3h-.258zm0 .987v.214h.258v-.257h-.258zm0 .987v.257l.258-.086v-.257l-.258.086zm0 .987v.257l.258-.085v-.215a22.232 22.232 0 01-.258.086zm0 .987v.258a34.807 34.807 0 00.258-.086v-.258l-.258.086zM21.61-70.85v.257l.344.086v-.257l-.344-.13zm0 .987v.343l.344.086v-.343l-.344-.086zm0 1.03v.386c.086 0 .215 0 .344.086v-.386l-.344-.086zm0 1.03v.343l.344.043v-.3a40.515 40.515 0 00-.344-.086zm0 1.03v.343h.344v-.3h-.344zm0 1.03v.343h.344v-.257l-.344-.086zm0 1.03v.3l.344.043v-.3l-.344-.043zm0 1.03v.3l.344.043v-.3l-.344-.086zm0 1.03v.3h.344v-.257h-.344zm0 1.03v.3h.344v-.257h-.344zm0 1.03v.3h.344v-.3h-.344zm0 1.03v.3h.344v-.343h-.344zm0 1.03v.3h.344v-.343h-.344zm0 1.03v.3l.344-.042v-.3h-.344zm0 1.03v.3l.344-.042v-.343l-.344.128zm0 1.03v.3l.344-.085v-.3l-.344.085zm0 1.03v.3l.344-.085v-.3c-.129 0-.258 0-.344.085zm0 1.03v.3a32.232 32.232 0 00.344-.085v-.343l-.344.129zm-1.287-17.94v.43l.43.086v-.387l-.43-.128zm0 1.074v.429l.43.086v-.387l-.43-.128zm0 1.073v.429c.172 0 .3 0 .43.086v-.43c-.13 0-.258 0-.43-.085zm0 1.072v.43l.43.043v-.387l-.43-.086zm0 1.073v.43h.43v-.3l-.43-.087zm0 1.073v.43h.43v-.344l-.43-.086zm0 1.073v.43h.43v-.387h-.43zm0 1.073v.43h.43v-.43h-.43zm0 1.073v.43h.43v-.43h-.43zm0 1.073v.387h.43v-.387h-.43zm0 1.073v.43l.43-.044v-.429l-.43.043zm0 1.073v.386h.43v-.429l-.43.043zm0 1.073v.386l.43-.043v-.386l-.43.043zm0 1.073v.386l.43-.043v-.429l-.43.086zm0 1.073v.386l.43-.086v-.386l-.43.086zm0 1.073v.386l.43-.086v-.429c-.13.086-.258.086-.43.129zm0 1.073v.386c.172 0 .3-.086.43-.129v-.343l-.43.086zm0 1.073v.386l.43-.129v-.386a311.159 311.159 0 01-.43.129zm-1.374-18.67v.43l.558.171v-.429l-.558-.172zm0 1.116v.43l.558.171v-.429l-.558-.215zm0 1.116v.43l.558.128v-.43l-.558-.128zm0 1.116v.43l.558.128v-.43l-.558-.17zm0 1.116v.43l.558.128v-.43l-.558-.171zm0 1.116v.429l.558.086v-.43l-.558-.085zm0 1.116v.429l.558.086v-.472l-.558-.086zm0 1.116v.429l.558.086v-.43l-.558-.128zm0 1.115v.43l.558.043v-.43h-.558zm0 1.116v.43h.558v-.43h-.558zm0 1.116v.472h.558v-.515h-.558zm0 1.116v.472h.558v-.515h-.558zm0 1.116v.472l.558-.043v-.429h-.558zm0 1.159v.429l.558-.086v-.43l-.558.087zm0 1.116v.429l.558-.086v-.43c-.214 0-.386 0-.558.087zm0 1.116v.429l.558-.086v-.43c-.214 0-.386 0-.558.087zm0 1.115v.43l.558-.13v-.428c-.214 0-.386.085-.558.128zm0 1.116v.43l.558-.13v-.428c-.214 0-.386.085-.558.128zm-1.502-19.57v.514l.644.215v-.472a165.15 165.15 0 00-.6-.258zm0 1.158v.558l.644.172v-.515a195.58 195.58 0 00-.6-.172zm0 1.16v.557l.644.129v-.43l-.6-.214zm0 1.2v.516l.644.129v-.473l-.6-.128zm0 1.16v.558l.644.085v-.472l-.6-.129zm0 1.158v.601l.644.086v-.515l-.6-.129zm0 1.202v.515l.644.086v-.515l-.6-.043zm0 1.159v.515l.644.043v-.472l-.6-.043zm0 1.159v.558h.644v-.472h-.6zm0 1.158v.644h.644v-.558h-.6zm0 1.202v.515h.644v-.558h-.6zm0 1.159v.515h.644v-.515h-.6zm0 1.159v.558l.644-.086v-.472l-.6.043zm0 1.159v.558l.644-.086v-.472l-.6.043zm0 1.201v.515l.644-.128v-.473l-.6.13zm0 1.16v.557l.644-.172v-.472l-.6.129zm0 1.158v.6l.644-.17v-.516l-.6.129zm0 1.202v.515l.644-.172v-.515c-.172 0-.43.129-.6.215zm-1.673-20.43v.601l.858.258v-.601l-.858-.258zm0 1.245v.558l.858.258v-.601l-.858-.215zm0 1.202v.644l.858.171v-.6l-.858-.215zm0 1.244v.601l.858.172v-.6l-.858-.173zm0 1.202v.644c.3 0 .557.086.858.129v-.601l-.858-.172zm0 1.288v.558l.858.128v-.6l-.858-.172zm0 1.201v.601l.858.086v-.6l-.858-.087zm0 1.202v.644h.858v-.558l-.858-.086zm0 1.245v.558h.858v-.472l-.858-.086zm0 1.201v.644h.858v-.6h-.858zm0 1.245v.601h.858v-.6h-.858zm0 1.245v.6l.858-.042v-.687l-.858.129zm0 1.201v.644l.858-.086v-.643l-.858.085zm0 1.245v.601l.858-.086v-.644l-.858.13zm0 1.202v.644l.858-.172v-.6l-.858.128zm0 1.244v.601c.3 0 .557-.043.858-.171v-.601l-.858.171zm0 1.245v.601l.858-.215v-.6l-.858.214zm0 1.202v.687l.858-.3v-.559l-.858.172zm-1.803-21.46v.687l.944.3v-.686a286.695 286.695 0 00-.944-.3zm0 1.288v.687l.944.257v-.686l-.944-.258zm0 1.288v.73l.944.214v-.687l-.944-.257zm0 1.287v.73l.944.172v-.687l-.944-.215zm0 1.288v.73c.343-.044.644.085.944.128v-.687a302.747 302.747 0 00-.944-.171zm0 1.287v.73c.343-.043.644.086.944.129v-.73l-.944-.129zm0 1.288v.73l.944.085v-.686l-.944-.13zm0 1.287v.73l.944.043v-.687l-.944-.086zm0 1.288v.73h.944v-.687h-.944zm0 1.288v.73h.944v-.688h-.944zm0 1.287v.73l.944-.043v-.687h-.944zm0 1.288v.73l.944-.087v-.686l-.944.043zm0 1.287v.73l.944-.043v-.773l-.944.086zm0 1.288v.73l.944-.13v-.686l-.944.129zm0 1.287v.73l.944-.172v-.686l-.944.171zm0 1.288v.73l.944-.215v-.687l-.944.215zm0 1.287v.73l.944-.215v-.686a231.674 231.674 0 01-.944.214zm0 1.288v.73l.944-.258v-.644a418.326 418.326 0 01-.944.258zm-2.06-22.532v.858l1.159.3v-.815l-1.16-.386zm0 1.373v.816l1.159.3v-.858l-1.16-.3zm0 1.374v.73l1.159.257v-.773l-1.16-.257zm0 1.33v.858l1.159.172v-.772l-1.16-.3zm0 1.373v.816l1.159.172v-.816l-1.16-.214zm0 1.374v.815c.43 0 .772.086 1.159.129v-.858l-1.16-.13zm0 1.33v.859c.43 0 .772 0 1.159.086v-.902l-1.16-.086zm0 1.374v.815h1.202v-.772l-1.202-.086zm0 1.373v.73h1.159v-.73l-1.16-.043zm0 1.33v.859l1.202-.129v-.772H11.91zm0 1.374v.815l1.202-.085v-.816H11.91zm0 1.33v.859l1.202-.215v-.73l-1.202.044zm0 1.374v.858l1.202-.257v-.73l-1.202.086zm0 1.373v.816l1.202-.215v-.815l-1.202.171zm0 1.33v.859l1.202-.3v-.773l-1.202.172zm0 1.374v.858l1.202-.386v-.73l-1.202.215zm0 1.373v.816l1.202-.343v-.73l-1.202.215zm0 1.33v.86l1.202-.43v-.772l-1.202.3zM9.764-74.841v.902l1.373.429v-.944l-1.373-.387zm0 1.417v.944l1.288.343v-.858l-1.288-.472zm0 1.459v.901l1.288.343v-.9l-1.288-.344zm0 1.416v.944l1.288.258v-.859l-1.288-.386zm0 1.46v.9l1.288.215v-.858l-1.288-.3zm0 1.416v.944l1.288.172v-.902l-1.288-.214zm0 1.459v.901l1.288.129v-.858l-1.288-.215zm0 1.416v.944l1.288.043v-.858L9.764-64.8zm0 1.416v.945h1.288v-.859l-1.288-.086zm0 1.46v.901h1.288v-.858l-1.288-.086zm0 1.416v.944l1.288-.086v-.858H9.764zm0 1.46v.9l1.288-.085v-.902l-1.288.086zm0 1.416v.944l1.288-.172v-.858l-1.288.043zm0 1.459v.901l1.288-.172v-.9c-.387 0-.859.085-1.288.17zm0 1.416v.944l1.288-.257v-.901l-1.288.214zm0 1.46v.9l1.288-.3v-.858l-1.288.214zm0 1.416v.944l1.288-.343v-.902l-1.288.3zm0 1.459v.858l1.288-.343v-.858l-1.288.343zM7.189-75.743v1.073l1.717.515v-.987l-1.717-.601zm0 1.545v1.03l1.674.43v-.945l-1.674-.472zm0 1.502v1.073l1.717.43v-1.03a707.983 707.983 0 00-1.717-.43zm0 1.545v1.03l1.717.387v-1.03a1814.206 1814.206 0 00-1.717-.344zm0 1.502v1.073l1.717.3v-1.03a974.163 974.163 0 00-1.717-.3zm0 1.545v1.03l1.717.258v-1.03a1253.648 1253.648 0 00-1.717-.172zm0 1.503v1.073c.6.042 1.116.085 1.717.171v-1.03l-1.717-.171zm0 1.588v1.03l1.717.085v-.987a955.193 955.193 0 00-1.717-.128zm0 1.502v1.073h1.717v-.987l-1.717-.086zm0 1.502v1.073h1.717v-1.073H7.189zm0 1.545v1.03h1.717v-1.073H7.189zm0 1.502v1.073l1.717-.129v-1.03l-1.717.086zm0 1.545v.987l1.717-.128v-1.03a1148.498 1148.498 0 01-1.717.171zm0 1.502v1.073l1.717-.3v-.987l-1.717.214zm0 1.545v1.03l1.717-.3v-.987l-1.717.257zm0 1.503v1.072l1.717-.386v-.987l-1.717.3zm0 1.545v1.03l1.717-.43v-.987l-1.717.387zm0 1.502v1.116l1.717-.515v-1.03l-1.717.429zM4.356-76.601v1.201l2.017.601V-76l-2.017-.643zm0 1.63v1.202l2.017.515v-1.201l-2.017-.558zm0 1.631v1.202l2.017.43v-1.202l-2.017-.473zm0 1.588v1.16l2.017.428v-1.244l-2.017-.387zm0 1.631v1.202l2.017.3v-1.115l-2.017-.43zm0 1.631v1.202l2.017.257v-1.201l-2.017-.3zm0 1.631v1.202l2.017.171v-1.244l-2.017-.172zm0 1.588v1.202l2.017.129v-1.202l-2.017-.172zm0 1.631v1.202h2.017v-1.16l-2.017-.085zm0 1.63v1.203l2.017-.086v-1.159H4.356zm0 1.589v1.202l2.017-.13v-1.158l-2.017.043zm0 1.63v1.202l2.017-.214v-1.116l-2.017.086zm0 1.632v1.158l2.017-.257v-1.116l-2.017.172zm0 1.63v1.202l2.017-.386v-1.116l-2.017.258zm0 1.589v1.201l2.017-.386v-1.159l-2.017.3zm0 1.63v1.202l2.017-.429v-1.202l-2.017.43zm0 1.631v1.116l2.017-.472v-1.159l-2.017.43zm0 1.631v1.202l2.017-.644v-1.159l-2.017.558zM1.18-77.718v1.374l2.404.687v-1.288a1909.228 1909.228 0 01-2.404-.772zm0 1.717v1.374l2.404.644v-1.33l-2.404-.73zm0 1.717v1.417l2.404.515v-1.245l-2.404-.644zm0 1.76v1.373l2.404.43v-1.288l-2.404-.515zm0 1.717v1.373l2.404.386v-1.287a2474.249 2474.249 0 01-2.404-.43zm0 1.716v1.417l2.404.257v-1.287l-2.404-.344zm0 1.76v1.373l2.404.215v-1.288l-2.404-.343zm0 1.717v1.373l2.404.129V-65.4a8243.348 8243.348 0 01-2.404-.214zm0 1.716v1.374l2.36.086v-1.288c-.772-.129-1.501-.172-2.36-.172zm0 1.717v1.46l2.36-.086v-1.288l-2.36-.043zm0 1.76v1.416l2.36-.171v-1.288l-2.36.043zm0 1.717v1.416l2.36-.215v-1.287l-2.36.043zm0 1.716v1.417l2.36-.3v-1.288l-2.36.214zm0 1.76v1.373l2.36-.429v-1.287l-2.36.343zm0 1.717v1.373l2.36-.429v-1.288l-2.36.3zm0 1.716v1.374l2.36-.515v-1.288l-2.36.43zm0 1.717v1.417l2.36-.601v-1.288l-2.36.472zm0 1.76v1.373l2.36-.686v-1.288l-2.36.6zm-3.734-30.644v1.588c1.03.258 1.975.558 2.919.858v-1.545l-2.919-.9zm0 1.889v1.545l2.919.73v-1.46a2677.21 2677.21 0 01-2.919-.858zm0 1.845v1.545l2.919.644v-1.416l-2.919-.773zm0 1.845v1.546c1.03.214 1.975.429 2.919.558v-1.46l-2.919-.644zm0 1.846v1.588l2.919.43v-1.46l-2.919-.558zm0 1.888v1.545l2.919.344v-1.46l-2.919-.429zm0 1.846v1.502l2.919.258v-1.417l-2.919-.343zm0 1.845v1.545l2.919.172v-1.46l-2.919-.257zm0 1.846v1.588l2.919.043v-1.46l-2.919-.214zm0 1.888v1.502H.365v-1.459l-2.919-.043zm0 1.846v1.545l2.919-.129v-1.46h-2.919zm0 1.845v1.545l2.919-.214v-1.502l-2.919.171zm0 1.846v1.588l2.919-.344v-1.502l-2.919.258zm0 1.888v1.545l2.919-.429v-1.502l-2.919.386zm0 1.846v1.545l2.919-.515v-1.502l-2.919.429zm0 1.845v1.545l2.919-.6v-1.546l-2.919.601zm0 1.846v1.588l2.919-.773v-1.46l-2.919.645zm0 1.888v1.545l2.919-.858v-1.46l-2.919.773zm-4.291-33.004v1.76l3.562 1.072v-1.716a1921.46 1921.46 0 01-3.52-1.073zm0 2.017v1.717l3.562.944v-1.631a3016.095 3016.095 0 01-3.52-1.03zm0 1.974v1.803l3.562.772v-1.674a2410 2410 0 01-3.52-.858zm0 2.017v1.76l3.605.73v-1.717a2789.785 2789.785 0 01-3.563-.773zm0 2.018v1.76l3.562.557v-1.674l-3.52-.6zm0 2.017v1.716c1.287.172 2.446.344 3.562.43v-1.588l-3.52-.558zm0 1.974v1.76l3.562.343v-1.76a6332.189 6332.189 0 01-3.52-.3zm0 2.017v1.76l3.562.214v-1.716l-3.52-.215zm0 2.017v1.717l3.562.086v-1.631l-3.52-.172zm0 1.975v1.76h3.562v-1.718h-3.52zm0 2.017v1.76l3.605-.172v-1.674l-3.563.129zm0 1.974v1.803l3.605-.3v-1.718l-3.563.215zm0 2.017v1.76l3.562-.43V-56.6l-3.52.257zm0 2.017v1.76l3.605-.515V-54.8l-3.52.43zm0 2.017v1.717l3.605-.6v-1.674l-3.563.557zm0 1.975v1.802l3.605-.815v-1.674l-3.563.687zm0 2.017v1.76l3.605-.859v-1.717l-3.563.859zm0 2.017v1.717l3.605-.944v-1.717l-3.563.944zm-4.979-35.751v2.017l4.42 1.288v-1.889l-4.463-1.416zm0 2.146v2.06l4.42 1.116v-1.889l-4.463-1.287zm0 2.189v2.06l4.42.987v-1.931l-4.463-1.116zm0 2.189v2.017l4.42.858v-1.888l-4.463-.987zm0 2.145v2.06l4.42.687v-1.888l-4.463-.859zm0 2.19v2.06l4.42.514v-1.888l-4.463-.687zm0 2.188v2.017l4.42.43v-1.975l-4.463-.472zm0 2.146v2.06l4.42.215v-1.846l-4.463-.429zm0 2.232v2.017l4.42.086v-1.889l-4.463-.214zm0 2.146v2.017l4.42-.043v-1.931l-4.463-.043zm0 2.146v2.06l4.42-.215v-1.888l-4.463.086zm0 2.231v2.018l4.42-.387v-1.888l-4.463.257zm0 2.146v2.103l4.42-.6v-1.889l-4.42.43zm0 2.19v2.016l4.42-.686v-1.846l-4.463.515zm0 2.145v2.06l4.42-.858v-1.803l-4.463.644zm0 2.189v2.06l4.42-.987v-1.888l-4.42.858zm0 2.189v2.017l4.42-1.116v-1.931l-4.463 1.03zm0 2.146v2.06l4.42-1.288v-1.888l-4.463 1.159zm-5.966-38.884v2.231l5.45 1.588v-2.146l-5.45-1.716zm0 2.36v2.318l5.45 1.416v-2.146l-5.45-1.63zm0 2.404v2.317l5.45 1.159v-2.146l-5.45-1.373zm0 2.36v2.318l5.45 1.03v-2.146l-5.45-1.245zm0 2.36v2.361l5.45.859v-2.146l-5.45-1.16zm0 2.404v2.318l5.45.686v-2.146l-5.45-.944zm0 2.36v2.361l5.45.43v-2.147l-5.45-.643zm0 2.404v2.318l5.45.3v-2.146l-5.45-.515zm0 2.36v2.361l5.45.086v-2.146l-5.45-.343zm0 2.404v2.275l5.45-.086v-2.146l-5.45-.086zm0 2.36v2.318l5.45-.257v-2.146h-5.45zm0 2.361v2.36l5.45-.515v-2.145l-5.45.257zm0 2.403v2.318l5.45-.687v-2.146l-5.45.472zm0 2.36v2.361l5.45-.858v-2.146l-5.45.601zm0 2.404v2.318l5.45-1.073v-2.146l-5.45.858zm0 2.36v2.361l5.45-1.287v-2.146l-5.45 1.03zm0 2.404v2.318l5.45-1.416v-2.146l-5.45 1.158zm0 2.36v2.361l5.45-1.588v-2.146l-5.45 1.33zm42.618-9.699v.172l.172-.043v-.215l-.215.043zm-.987.258v.171l.215-.042v-.215l-.215.086zm-1.073.3v.258l.258-.129v-.215a30.73 30.73 0 01-.258.086zm-1.159.3v.344l.344-.129v-.3l-.344.086zm-1.287.387v.386l.43-.129v-.429l-.43.172zm-1.374.386v.43l.558-.086v-.43c-.214 0-.386.086-.558.13zm-1.502.43v.514l.644-.171v-.558l-.6.214zm-1.673.429v.643l.858-.257v-.601l-.858.257zm-1.803.6v.601l.944-.257v-.687a408.069 408.069 0 01-.944.3zm-2.06.515v.859l1.159-.43v-.772l-1.16.343zm-2.146.644v.944l1.288-.429v-.987l-1.288.472zm-2.575.73v1.03l1.717-.515v-1.03l-1.717.515zm-2.833.772v1.202l2.017-.644v-1.116l-2.017.558zm-3.176.945v1.287L3.54-46v-1.287l-2.36.73zm-3.734 1.03v1.545l2.919-.945v-1.459l-2.919.859zm-4.291 1.201v1.803l3.605-1.159V-45.4c-1.16.43-2.36.773-3.563 1.116zm-5.022 1.46v2.017l4.42-1.46v-1.888l-4.42 1.288zm-5.923 1.673v2.318l5.45-1.76v-2.146l-5.45 1.588z"/>
    </symbol>
  </svg>
