<svg
	xmlns="http://www.w3.org/2000/svg">
	<symbol id="logo" viewBox="-50 -78.837 100 123.467">
		<g>
			<path d="M-46.597-16.667c0-.375-.188-.562-.563-.562h-2.277c-.375 0-.563.187-.563.562V-.563c0 .375.188.563.563.563h2.277c.375 0 .563-.188.563-.563zM-40.635 0c.375 0 .563-.188.563-.563v-8.119c0-1.357.616-2.036 1.849-2.036h.964c.572 0 .978.12 1.22.362.24.24.361.647.361 1.219v8.574c0 .375.188.563.563.563h2.25c.394 0 .59-.188.59-.563v-8.735c0-2.912-1.402-4.368-4.207-4.368h-.857c-1.358 0-2.233.483-2.626 1.447h-.107v-.884c0-.375-.188-.563-.563-.563h-2.278c-.375 0-.562.188-.562.563v12.54c0 .375.187.563.562.563zM-29.394-10.718c.196 0 .294.098.294.295v6.082c0 1.394.389 2.465 1.166 3.216.777.75 1.871 1.125 3.282 1.125h1.635c.214 0 .362-.04.442-.12.08-.081.12-.22.12-.416v-1.849c0-.375-.187-.562-.562-.562h-1.072c-.572 0-.982-.121-1.233-.362-.25-.241-.375-.639-.375-1.193v-5.921c0-.197.108-.295.322-.295h2.09c.214 0 .362-.04.442-.12.08-.081.12-.22.12-.416v-1.849c0-.375-.187-.563-.562-.563h-2.09c-.214 0-.322-.098-.322-.294v-2.546c0-.375-.187-.563-.562-.563h-2.251c-.393 0-.59.188-.59.563v2.546c0 .196-.098.294-.294.294h-1.072c-.375 0-.563.188-.563.563v1.849c0 .214.04.357.12.429.081.071.228.107.443.107zM-10.383 0c.214 0 .362-.04.442-.12.08-.081.12-.22.12-.416v-1.768c0-.393-.187-.59-.562-.59h-5.413c-.571 0-.978-.12-1.219-.362-.241-.24-.362-.638-.362-1.192v-.59c0-.196.107-.294.322-.294h6.725c.376 0 .563-.188.563-.563v-3.403c0-1.411-.384-2.492-1.152-3.242-.768-.75-1.858-1.126-3.27-1.126h-2.116c-1.411 0-2.5.376-3.269 1.126-.768.75-1.152 1.83-1.152 3.242v4.93c0 1.412.384 2.492 1.152 3.243.768.75 1.858 1.125 3.27 1.125zm-6.672-7.61c-.197 0-.295-.098-.295-.295V-9.19c0-.571.116-.973.348-1.206.233-.232.635-.348 1.206-.348h1.126c.571 0 .973.116 1.205.348.233.233.349.635.349 1.206v1.286c0 .197-.099.295-.295.295zM-4.609 0c.375 0 .563-.188.563-.563v-8.065c0-1.393.616-2.09 1.849-2.09h1.849c.196.018.335-.014.415-.094.08-.08.12-.228.12-.442v-1.849c0-.375-.178-.563-.535-.563h-.965a3.49 3.49 0 00-1.58.376c-.501.25-.85.616-1.046 1.098h-.107v-.91c0-.376-.188-.564-.563-.564h-2.277c-.376 0-.563.188-.563.563v12.54c0 .375.187.563.563.563zM1.085-13.666c-.375 0-.509.188-.402.563L4.033-.589c.107.393.348.589.723.589H8.16c.411 0 .652-.196.724-.59l3.376-12.513c.107-.375-.027-.563-.402-.563H9.499c-.375 0-.598.188-.67.563L6.579-3.028H6.39L4.086-13.103c-.071-.375-.286-.563-.643-.563zM14.121-15.97c0 .357.179.536.536.536h2.331c.357 0 .536-.179.536-.536v-2.358c0-.34-.179-.51-.536-.51h-2.331c-.357 0-.536.18-.536.537zm0 15.407c0 .375.188.563.563.563h2.304c.197 0 .335-.036.416-.107.08-.072.12-.223.12-.456v-12.54c0-.375-.187-.563-.563-.563h-2.304c-.357 0-.536.188-.536.563zM30.453 0c.214 0 .362-.04.442-.12.08-.081.12-.22.12-.416v-1.768c0-.393-.187-.59-.562-.59H25.04c-.571 0-.978-.12-1.219-.362-.241-.24-.362-.638-.362-1.192v-.59c0-.196.107-.294.322-.294h6.725c.376 0 .563-.188.563-.563v-3.403c0-1.411-.384-2.492-1.152-3.242-.768-.75-1.858-1.126-3.27-1.126h-2.116c-1.411 0-2.5.376-3.269 1.126-.768.75-1.152 1.83-1.152 3.242v4.93c0 1.412.384 2.492 1.152 3.243C22.03-.375 23.12 0 24.532 0zM23.78-7.61c-.197 0-.295-.098-.295-.295V-9.19c0-.571.116-.973.348-1.206.233-.232.635-.348 1.206-.348h1.126c.571 0 .973.116 1.205.348.233.233.349.635.349 1.206v1.286c0 .197-.099.295-.295.295zM38.853 0c.375 0 .59-.188.643-.563l1.608-9.057h.214l1.635 9.057c.071.375.286.563.643.563h3.055c.357 0 .571-.188.643-.563l2.68-12.54c.089-.375-.045-.563-.403-.563H47c-.375 0-.59.188-.643.563l-1.233 9.164h-.214l-1.849-9.164c-.071-.375-.295-.563-.67-.563h-2.358c-.357 0-.563.188-.616.563l-1.903 9.164H37.3l-1.206-9.164c-.035-.375-.25-.563-.643-.563h-2.572c-.34 0-.474.188-.402.563l2.68 12.54c.089.375.303.563.642.563z"/>
		</g>
		<g>
			<path d="M-43.467 44.63c.863 0 1.294-.431 1.294-1.294V31.687c0-.452.247-.678.74-.678h7.766c3.205 0 5.69-.873 7.457-2.62 1.767-1.745 2.65-4.221 2.65-7.426v-5.917c0-3.205-.883-5.68-2.65-7.427C-27.976 5.873-30.462 5-33.667 5h-15.039C-49.569 5-50 5.431-50 6.294v37.042c0 .863.431 1.294 1.294 1.294zm1.972-20.462c-.452 0-.678-.226-.678-.678V12.458c0-.452.226-.678.678-.678h6.534c1.314 0 2.239.277 2.773.832.534.554.801 1.49.801 2.804v5.177c0 1.274-.267 2.188-.801 2.743-.534.555-1.459.832-2.773.832zM-3.436 44.63c3.205 0 5.701-.873 7.488-2.62 1.788-1.745 2.681-4.221 2.681-7.426v-11.34c0-3.205-.893-5.681-2.68-7.427-1.788-1.747-4.284-2.62-7.49-2.62H-8.92c-3.246 0-5.753.863-7.52 2.589-1.766 1.726-2.65 4.211-2.65 7.457v11.341c0 3.246.884 5.732 2.65 7.458 1.767 1.725 4.274 2.588 7.52 2.588zm-4.314-6.718c-1.315 0-2.24-.267-2.774-.801-.534-.534-.801-1.459-.801-2.774V23.49c0-1.315.267-2.24.801-2.774.534-.534 1.459-.8 2.774-.8h3.143c1.315 0 2.25.266 2.804.8.555.535.832 1.46.832 2.774v10.847c0 1.315-.277 2.24-.832 2.774-.554.534-1.49.801-2.804.801zM18.906 44.63c.863 0 1.294-.431 1.294-1.294V24.784c0-3.205 1.418-4.807 4.253-4.807h4.253c.452.041.77-.03.955-.216.185-.185.277-.524.277-1.017v-4.252c0-.863-.41-1.295-1.232-1.295h-2.22a8.026 8.026 0 00-3.635.863c-1.15.575-1.952 1.418-2.404 2.527H20.2v-2.095c0-.863-.431-1.295-1.294-1.295h-5.239c-.863 0-1.294.432-1.294 1.295v28.844c0 .863.431 1.294 1.294 1.294zM34.037 19.977c.452 0 .678.226.678.678v13.99c0 3.206.894 5.67 2.681 7.397 1.787 1.725 4.304 2.588 7.55 2.588h3.76c.493 0 .832-.092 1.017-.277.185-.185.277-.503.277-.955v-4.253c0-.863-.431-1.294-1.294-1.294H46.24c-1.314 0-2.26-.278-2.835-.833-.575-.554-.863-1.468-.863-2.742V20.655c0-.452.247-.678.74-.678h4.807c.493 0 .832-.093 1.017-.277.185-.185.278-.504.278-.956v-4.252c0-.863-.432-1.295-1.295-1.295h-4.807c-.493 0-.74-.226-.74-.678V6.664c0-.863-.431-1.294-1.294-1.294h-5.177c-.904 0-1.356.431-1.356 1.294v5.855c0 .452-.226.678-.678.678h-2.465c-.863 0-1.295.432-1.295 1.295v4.252c0 .493.093.822.278.986.185.165.524.247 1.017.247z"/>
		</g>
		<path d="M0-28.837c13.808 0 25-11.192 25-25s-11.192-25-25-25-25 11.192-25 25 11.192 25 25 25zm-1.848-39.967h3.125v13.884h13.886v3.125H-1.848v-17.01zm-9.311.683h3.125v22.317h22.317v3.125H-11.16v-25.442z"/>
	</symbol>
	<symbol id="logo-short" viewBox="0 0 50 50">
		<path d="M25 50c13.808 0 25-11.192 25-25S38.808 0 25 0 0 11.192 0 25s11.192 25 25 25zm-1.848-39.967h3.125v13.884h13.886v3.125H23.152v-17.01.001zm-9.311.683h3.125v22.317h22.317v3.125H13.84V10.716h.001z"/>
	</symbol>
</svg>
