<svg fill="none" xmlns="http://www.w3.org/2000/svg">
    <symbol  viewBox="0 0 572 52" id="logo">
        <path d="M464.127 15.566C464.127 4.538 456.289 1 446.509 1H430v48.555h4.509V30.133h12c9.78 0 17.618-3.468 17.618-14.566zm-4.647 0c0 7.977-5.549 10.613-12.694 10.613h-12.277V4.954h12.277c7.145 0 12.694 2.705 12.694 10.613zM507.868 31.381c0-11.722-5.827-19.005-16.578-19.005-10.821 0-16.578 7.283-16.578 19.005 0 11.723 5.757 18.937 16.578 18.937 10.751 0 16.578-7.214 16.578-18.936zm-4.439 0c0 9.226-3.607 15.26-12.139 15.26s-12.069-6.034-12.069-15.26c0-9.225 3.537-15.329 12.069-15.329s12.139 6.104 12.139 15.33zM526.638 13.139h-4.301v36.416h4.301V28.329s1.457-11.445 13.873-11.445v-4.161c-9.711-.694-13.457 7.144-13.873 8.254v-7.838zM549.154 16.607h5.064v25.595c0 6.451 3.468 8.116 7.422 8.116 3.537 0 7.977-1.734 9.433-2.428l-1.734-3.33c-1.318.556-5.133 1.943-7.283 1.943-2.081 0-3.538-.902-3.538-4.023V16.607h10.058v-3.468h-10.058V2.595l-4.3 1.388v9.156h-5.064v3.468zM76.861 50.358V1.803H65v48.555h11.861zM100.903 13.942H89.527v36.416h11.376V26.22c2.081-2.012 5.896-4.232 9.225-4.232 3.468 0 4.301 2.29 4.301 5.41v22.96h11.375V24.763c0-7.075-3.19-11.584-11.098-11.584-5.688 0-10.474 2.636-13.803 4.856v-4.093zM134.863 22.266h4.994v15.537c0 9.018 3.677 13.318 11.307 13.318 5.133 0 9.85-1.942 12.347-3.052l-3.954-8.393c-.902.347-3.676 1.526-5.341 1.526-1.387 0-3.052-.277-3.052-3.33V22.267h9.919v-8.324h-9.919V3.4l-11.307 1.387v9.156h-4.994v8.324zM205.033 34.543s.624-2.15.624-5.202c0-9.295-5.827-16.162-17.619-16.162-11.653 0-18.589 7.075-18.589 19.075 0 13.04 7.907 18.867 17.757 18.867 8.532 0 15.884-4.092 18.659-5.618l-4.162-7.075c-4.509 2.358-9.503 4.3-13.318 4.3-4.37 0-6.728-2.774-7.283-8.185h23.931zm-16.925-13.318c4.231 0 6.381 2.567 6.451 7.353h-13.388c.625-4.717 2.844-7.353 6.937-7.353zM227.201 13.942h-11.375v36.416h11.375V35.931s1.318-11.723 13.596-11.723V13.526c-9.226-.624-12.763 5.896-13.596 7.977v-7.56zM272.121 50.358l14.428-36.416h-12.277l-7.769 24.278-7.769-24.278h-12.277l14.427 36.416h11.237zM306.567 50.358V13.942h-11.445v36.416h11.445zM294.914 9.295h11.931V0h-11.931v9.295zM352.32 34.543s.624-2.15.624-5.202c0-9.295-5.827-16.162-17.619-16.162-11.653 0-18.589 7.075-18.589 19.075 0 13.04 7.907 18.867 17.757 18.867 8.532 0 15.884-4.092 18.659-5.618l-4.162-7.075c-4.509 2.358-9.503 4.3-13.318 4.3-4.37 0-6.728-2.774-7.283-8.185h23.931zm-16.925-13.318c4.231 0 6.381 2.567 6.451 7.353h-13.388c.625-4.717 2.844-7.353 6.937-7.353zM394.744 50.358h10.613l11.306-36.416h-12.069l-5.341 24.208-6.59-24.208h-9.295l-6.589 24.208-5.341-24.208h-12.07l11.168 36.416h10.682l6.798-22.82 6.728 22.82zM14.366 15.284h21.35v21.35L49 49.917V2H1.083l13.283 13.284zm20.268 22.432h-21.35v-21.35L0 3.083V51h47.917L34.634 37.716z"/>
    </symbol>


    <symbol  viewBox="0 0 49 49" id="logo-short">
        <path d="M14.366 13.284h21.35v21.35L49 47.917V0H1.083l13.283 13.284zm20.268 22.432h-21.35v-21.35L0 1.083V49h47.917L34.634 35.716z"/>
    </symbol>
</svg>
