<svg xmlns="http://www.w3.org/2000/svg" style="display: none;">
    <symbol id="logo-2" viewBox="0 0 132 50">
        <path d="M3.78788 48.3289H2.67379V36.5195H3.78788V35.1827H0V36.5195H1.11409V48.3289H0V49.6658H3.78788V48.3289ZM8.97273 49.6658V38.4135C8.97273 37.9382 9.24742 37.448 9.79697 36.943C10.3467 36.4379 10.9483 36.1855 11.602 36.1855C12.2555 36.1855 12.7048 36.3414 12.95 36.6533C13.195 36.9653 13.3176 37.4035 13.3176 37.9679V49.6658H14.8773V37.9679C14.8773 35.8883 13.7855 34.8485 11.602 34.8485C10.3392 34.8485 9.35151 35.4427 8.63833 36.6311L8.08136 35.1827H7.41288V49.6658H8.97273ZM18.6141 35.1827V47.1033C18.6141 48.0392 18.8703 48.7559 19.3829 49.2536C19.8953 49.7512 20.5748 50 21.4217 50C22.2683 50 22.9405 49.7512 23.4382 49.2536C23.9358 48.7559 24.1845 48.0392 24.1845 47.1033V44.5411H22.6248V47.1926C22.6248 47.6233 22.5209 47.9761 22.3129 48.2509C22.1048 48.5258 21.8041 48.6632 21.4105 48.6632C21.0168 48.6632 20.7123 48.522 20.497 48.2397C20.2815 47.9576 20.1738 47.6085 20.1738 47.1926V36.5195H23.5161V35.1827H18.6141V35.1827ZM32.6001 46.8806C32.6001 48.0689 31.8945 48.663 30.4835 48.663C29.0723 48.663 28.3667 48.0689 28.3667 46.8806V42.8699H34.1598V37.9679C34.1598 36.9727 33.848 36.2039 33.2241 35.6618C32.6002 35.1195 31.6792 34.8485 30.4612 34.8485C29.243 34.8485 28.3295 35.1195 27.7205 35.6618C27.1115 36.2039 26.807 36.9727 26.807 37.9679V46.8806C26.807 47.8758 27.1189 48.6445 27.7427 49.1867C28.3667 49.7289 29.2877 50 30.5058 50C31.7238 50 32.6373 49.7289 33.2464 49.1867C33.8555 48.6445 34.1598 47.8758 34.1598 46.8806V45.6552H32.6001V46.8806V46.8806ZM28.3667 37.9679C28.3667 36.7795 29.0723 36.1855 30.4835 36.1855C31.8945 36.1855 32.6001 36.7795 32.6001 37.9679V41.533H28.3667V37.9679V37.9679ZM39.6792 49.6658V39.483C39.6792 38.4135 39.8835 37.5965 40.292 37.0321C40.7005 36.4676 41.1498 36.1855 41.64 36.1855C42.4571 36.1855 42.8656 36.6756 42.8656 37.6559V39.1933H44.3585V37.7452C44.3585 35.8141 43.4745 34.8485 41.707 34.8485C40.6671 34.8485 39.9095 35.5095 39.4342 36.8315L38.788 35.1827H38.1195V49.6658H39.6792ZM51.1474 49.6658L54.4229 35.1827H52.8632L49.9665 47.9502L47.0923 35.1827H45.5326L48.8079 49.6658H51.1474ZM58.9392 49.6658V35.1827H57.3795V49.6658H58.9392ZM68.6921 46.8806C68.6921 48.0689 67.9865 48.663 66.5755 48.663C65.1642 48.663 64.4586 48.0689 64.4586 46.8806V42.8699H70.2518V37.9679C70.2518 36.9727 69.9398 36.2039 69.3161 35.6618C68.6921 35.1195 67.7712 34.8485 66.553 34.8485C65.335 34.8485 64.4215 35.1195 63.8124 35.6618C63.2035 36.2039 62.8989 36.9727 62.8989 37.9679V46.8806C62.8989 47.8758 63.2109 48.6445 63.8347 49.1867C64.4586 49.7289 65.3795 50 66.5977 50C67.8158 50 68.7292 49.7289 69.3383 49.1867C69.9473 48.6445 70.2518 47.8758 70.2518 46.8806V45.6552H68.6921V46.8806ZM64.4586 37.9679C64.4586 36.7795 65.1642 36.1855 66.5755 36.1855C67.9865 36.1855 68.6921 36.7795 68.6921 37.9679V41.533H64.4586V37.9679V37.9679ZM79.6701 46.8806C79.6701 48.0689 78.9832 48.6632 77.6091 48.6632C76.2351 48.6632 75.548 48.0689 75.548 46.8806V35.1827H73.9883V46.8806C73.9883 47.8609 74.3003 48.6259 74.9242 49.1756C75.548 49.7252 76.4801 50 77.7206 50C78.9609 50 79.8707 49.5692 80.45 48.7077C81.0591 49.5692 81.9764 50 83.2018 50C84.4273 50 85.352 49.7252 85.9759 49.1756C86.5998 48.6259 86.9117 47.8609 86.9117 46.8806V35.1827H85.352V46.8806C85.352 48.0689 84.665 48.6632 83.2909 48.6632C81.917 48.6632 81.2298 48.0689 81.2298 46.8806V35.1827H79.6701V46.8806V46.8806ZM97.2817 49.6658V45.2094H99.0865C100.26 45.2094 101.144 44.9383 101.738 44.3962C102.332 43.8539 102.629 43.0853 102.629 42.09V38.3021C102.629 37.3218 102.328 36.5568 101.727 36.0071C101.125 35.4576 100.245 35.1827 99.0865 35.1827H95.722V49.6658H97.2817V49.6658ZM101.07 42.09C101.07 43.2783 100.408 43.8726 99.0865 43.8726H97.2817V36.5195H99.0865C99.7251 36.5195 100.215 36.6756 100.557 36.9876C100.899 37.2995 101.07 37.7377 101.07 38.3021V42.09V42.09ZM113.273 37.9679C113.273 36.9727 112.954 36.2039 112.315 35.6618C111.676 35.1195 110.729 34.8485 109.474 34.8485C108.219 34.8485 107.276 35.1195 106.644 35.6618C106.013 36.2039 105.697 36.9727 105.697 37.9679V46.8806C105.697 47.8758 106.017 48.6445 106.655 49.1867C107.294 49.7289 108.241 50 109.496 50C110.752 50 111.695 49.7289 112.326 49.1867C112.957 48.6445 113.273 47.8758 113.273 46.8806V37.9679V37.9679ZM111.713 46.8806C111.713 48.0689 110.971 48.663 109.485 48.663C108 48.663 107.257 48.0689 107.257 46.8806V37.9679C107.257 36.7795 108 36.1855 109.485 36.1855C110.971 36.1855 111.713 36.7795 111.713 37.9679V46.8806ZM118.792 49.6658V39.483C118.792 38.4135 118.997 37.5965 119.405 37.0321C119.814 36.4676 120.263 36.1855 120.753 36.1855C121.57 36.1855 121.979 36.6756 121.979 37.6559V39.1933H123.472V37.7452C123.472 35.8141 122.588 34.8485 120.82 34.8485C119.78 34.8485 119.023 35.5095 118.547 36.8315L117.901 35.1827H117.233V49.6658H118.792V49.6658ZM125.648 35.1827V47.1033C125.648 48.0392 125.905 48.7559 126.417 49.2536C126.93 49.7512 127.609 50 128.456 50C129.302 50 129.975 49.7512 130.472 49.2536C130.97 48.7559 131.219 48.0392 131.219 47.1033V44.5411H129.659V47.1926C129.659 47.6233 129.555 47.9761 129.347 48.2509C129.139 48.5258 128.838 48.6632 128.445 48.6632C128.051 48.6632 127.747 48.522 127.531 48.2397C127.316 47.9576 127.208 47.6085 127.208 47.1926V36.5195H130.55V35.1827H125.648V35.1827ZM65.6094 22.7273C71.8853 22.7273 76.973 17.6395 76.973 11.3636C76.973 5.08773 71.8853 0 65.6094 0C59.3335 0 54.2458 5.08773 54.2458 11.3636C54.2458 17.6395 59.3335 22.7273 65.6094 22.7273Z"/>
    </symbol>
    <symbol id="logo" viewBox="0 0 1037 105">
        <path d="M160.154 7.149H152v94.42h8.154V7.149zm58.598 21.459c-11.302 0-21.316 5.007-26.037 15.021l-.43-13.59h-7.296v71.53h8.155V61.655c0-17.024 12.017-25.894 24.75-25.894 11.73 0 20.171 6.58 20.171 22.175v43.633h8.155V55.361c0-17.74-11.731-26.753-27.468-26.753zm85.779 61.516c-3.29 3.434-7.153 5.294-12.303 5.294-7.726 0-12.16-4.435-12.16-13.019V37.05h26.895v-7.01h-26.895V10.153l-8.155 2.146v17.74h-14.306v7.01h14.306v46.638c0 13.447 7.868 19.313 18.884 19.313 7.153 0 12.876-2.432 16.738-6.009l-3.004-6.867zm75.195-26.466c0-20.315-11.302-35.05-31.33-35.05-21.03 0-33.191 14.02-33.191 37.196S327.937 103 349.111 103c14.592 0 24.177-6.009 29.47-16.166l-6.724-3.576c-3.433 8.011-11.73 12.589-22.746 12.589-15.165 0-24.75-9.871-25.751-26.753h56.08c.143-1.43.286-3.29.286-5.436zm-31.33-27.897c14.162 0 22.46 9.871 23.604 26.037h-48.64c1.144-16.452 10.157-26.037 25.035-26.037h.001zm80.342-7.153c-11.302 0-19.313 5.58-23.033 15.308l-1.001-13.877h-6.867v71.53h8.154V61.8c0-15.594 10.158-25.609 20.458-25.609 4.292 0 7.01 1.002 9.013 2.29l2.003-7.726c-2.146-1.43-5.293-2.146-8.727-2.146v-.001zm70.186 1.431l-25.179 63.233-24.893-63.233h-9.156l29.757 71.53h8.298l29.756-71.53h-8.583zm25.264-13.877c3.863 0 6.58-2.575 6.58-6.581S528.052 3 524.189 3c-4.006 0-6.724 2.575-6.724 6.58 0 4.007 2.718 6.582 6.724 6.582h-.001zm4.006 13.877h-8.155v71.53h8.155v-71.53zm83.061 33.619c0-20.315-11.302-35.05-31.33-35.05-21.03 0-33.19 14.02-33.19 37.196S559.466 103 580.64 103c14.592 0 24.177-6.009 29.47-16.166l-6.723-3.576c-3.434 8.011-11.732 12.589-22.747 12.589-15.165 0-24.75-9.871-25.751-26.753h56.08c.143-1.43.286-3.29.286-5.436zm-31.33-27.897c14.163 0 22.46 9.871 23.605 26.037h-48.641c1.144-16.452 10.157-26.037 25.035-26.037h.001zm139.429-5.722l-19.6 62.088-21.602-62.087h-8.297l-21.46 62.088-19.742-62.088h-9.013l24.463 71.53h8.155l21.316-61.23 22.175 61.23h8.154l24.464-71.53-9.013-.001zm97.882-22.89h-31.76v94.42h8.155V62.943h23.605c19.456 0 31.902-10.587 31.902-27.897S836.692 7.149 817.236 7.149zm-1.002 48.212h-22.603V14.73h22.603c16.166 0 24.464 7.296 24.464 20.315 0 13.018-8.298 20.315-24.464 20.315v.001zm77.339-26.753c-21.316 0-34.192 14.02-34.192 37.196S872.257 103 893.573 103c21.316 0 34.192-14.02 34.192-37.196s-12.876-37.196-34.192-37.196zm0 7.01c16.166 0 26.037 11.445 26.037 30.186s-9.87 30.186-26.037 30.186c-16.166 0-26.037-11.445-26.037-30.186s9.871-30.186 26.037-30.186zm83.633-7.01c-11.302 0-19.313 5.58-23.033 15.308l-1.001-13.877h-6.867v71.53h8.154V61.8c0-15.594 10.158-25.609 20.458-25.609 4.292 0 7.01 1.002 9.013 2.29l2.003-7.726c-2.146-1.43-5.293-2.146-8.727-2.146v-.001zm56.314 61.516c-3.29 3.434-7.16 5.294-12.31 5.294-7.72 0-12.16-4.435-12.16-13.019V37.05h26.9v-7.01h-26.9V10.153l-8.15 2.147v17.74h-14.306v7.01h14.306v46.638c0 13.447 7.87 19.313 18.88 19.313 7.16 0 12.88-2.432 16.74-6.009l-3-6.868zM52.5 105c28.995 0 52.5-23.505 52.5-52.5S81.495 0 52.5 0 0 23.505 0 52.5 23.505 105 52.5 105z"/>
    </symbol>
    <symbol id="logo-short" viewBox="0 0 50 50">
        <path d="M25 50C38.8071 50 50 38.8071 50 25C50 11.1929 38.8071 0 25 0C11.1929 0 0 11.1929 0 25C0 38.8071 11.1929 50 25 50Z" fill="white"/>
    </symbol>
</svg>
